<svg xmlns="http://www.w3.org/2000/svg" xmlns:xlink="http://www.w3.org/1999/xlink" width="500" zoomAndPan="magnify" viewBox="0 0 375 149.999998" height="200" preserveAspectRatio="xMidYMid meet" version="1.0"><defs><g/><clipPath id="41c933f869"><path d="M 22.109375 46.1875 L 84.359375 46.1875 L 84.359375 107.6875 L 22.109375 107.6875 Z M 22.109375 46.1875 " clip-rule="nonzero"/></clipPath><clipPath id="9b64ff7d35"><path d="M 23.351562 46.800781 L 84.101562 46.800781 L 84.101562 106.800781 L 23.351562 106.800781 Z M 23.351562 46.800781 " clip-rule="nonzero"/></clipPath></defs><rect x="-37.5" width="450" fill="#ffffff" y="-15" height="179.999997" fill-opacity="1"/><rect x="-37.5" width="450" fill="#ffffff" y="-15" height="179.999997" fill-opacity="1"/><g fill="#ff00ff" fill-opacity="1"><g transform="translate(101.464838, 88.80316)"><g><path d="M 8.0625 0 L 3.25 0 C 2.863281 0 2.582031 -0.0859375 2.40625 -0.265625 C 2.226562 -0.441406 2.140625 -0.722656 2.140625 -1.109375 L 2.140625 -21.203125 C 2.140625 -21.597656 2.226562 -21.878906 2.40625 -22.046875 C 2.582031 -22.222656 2.863281 -22.3125 3.25 -22.3125 L 17.078125 -22.3125 C 17.472656 -22.3125 17.757812 -22.222656 17.9375 -22.046875 C 18.113281 -21.878906 18.203125 -21.597656 18.203125 -21.203125 L 18.203125 -17.515625 C 18.203125 -17.117188 18.113281 -16.832031 17.9375 -16.65625 C 17.757812 -16.488281 17.472656 -16.40625 17.078125 -16.40625 L 9.171875 -16.40625 L 9.171875 -13.171875 L 14.5625 -13.171875 C 14.957031 -13.171875 15.242188 -13.082031 15.421875 -12.90625 C 15.597656 -12.726562 15.6875 -12.445312 15.6875 -12.0625 L 15.6875 -8.34375 C 15.6875 -7.945312 15.597656 -7.660156 15.421875 -7.484375 C 15.242188 -7.304688 14.957031 -7.21875 14.5625 -7.21875 L 9.171875 -7.21875 L 9.171875 -1.109375 C 9.171875 -0.722656 9.082031 -0.441406 8.90625 -0.265625 C 8.738281 -0.0859375 8.457031 0 8.0625 0 Z M 8.0625 0 "/></g></g></g><g fill="#ff00ff" fill-opacity="1"><g transform="translate(120.62045, 88.80316)"><g><path d="M 21.046875 -5.859375 C 21.046875 -4.910156 20.90625 -4.046875 20.625 -3.265625 C 20.351562 -2.492188 19.859375 -1.832031 19.140625 -1.28125 C 18.429688 -0.738281 17.453125 -0.3125 16.203125 0 C 14.953125 0.3125 13.363281 0.46875 11.4375 0.46875 C 9.519531 0.46875 7.929688 0.3125 6.671875 0 C 5.410156 -0.3125 4.421875 -0.738281 3.703125 -1.28125 C 2.992188 -1.832031 2.5 -2.492188 2.21875 -3.265625 C 1.9375 -4.046875 1.796875 -4.910156 1.796875 -5.859375 L 1.796875 -16.4375 C 1.796875 -17.382812 1.9375 -18.242188 2.21875 -19.015625 C 2.5 -19.796875 2.992188 -20.460938 3.703125 -21.015625 C 4.421875 -21.578125 5.410156 -22.007812 6.671875 -22.3125 C 7.929688 -22.625 9.519531 -22.78125 11.4375 -22.78125 C 13.363281 -22.78125 14.953125 -22.625 16.203125 -22.3125 C 17.453125 -22.007812 18.429688 -21.578125 19.140625 -21.015625 C 19.859375 -20.460938 20.351562 -19.796875 20.625 -19.015625 C 20.90625 -18.242188 21.046875 -17.382812 21.046875 -16.4375 Z M 8.828125 -6.96875 C 8.828125 -6.5625 8.984375 -6.21875 9.296875 -5.9375 C 9.609375 -5.65625 10.320312 -5.515625 11.4375 -5.515625 C 12.550781 -5.515625 13.265625 -5.65625 13.578125 -5.9375 C 13.890625 -6.21875 14.046875 -6.5625 14.046875 -6.96875 L 14.046875 -15.3125 C 14.046875 -15.707031 13.890625 -16.039062 13.578125 -16.3125 C 13.265625 -16.59375 12.550781 -16.734375 11.4375 -16.734375 C 10.320312 -16.734375 9.609375 -16.59375 9.296875 -16.3125 C 8.984375 -16.039062 8.828125 -15.707031 8.828125 -15.3125 Z M 8.828125 -6.96875 "/></g></g></g><g fill="#ff00ff" fill-opacity="1"><g transform="translate(143.464607, 88.80316)"><g><path d="M 9.140625 -16.734375 L 9.140625 -12.765625 L 11.46875 -12.765625 C 12.007812 -12.765625 12.367188 -12.90625 12.546875 -13.1875 C 12.734375 -13.46875 12.828125 -13.816406 12.828125 -14.234375 L 12.828125 -15.28125 C 12.828125 -15.695312 12.734375 -16.039062 12.546875 -16.3125 C 12.367188 -16.59375 12.007812 -16.734375 11.46875 -16.734375 Z M 8.03125 0 L 3.25 0 C 2.863281 0 2.582031 -0.0859375 2.40625 -0.265625 C 2.226562 -0.441406 2.140625 -0.722656 2.140625 -1.109375 L 2.140625 -21.203125 C 2.140625 -21.597656 2.226562 -21.878906 2.40625 -22.046875 C 2.582031 -22.222656 2.863281 -22.3125 3.25 -22.3125 L 13.578125 -22.3125 C 15.890625 -22.3125 17.484375 -21.832031 18.359375 -20.875 C 19.242188 -19.914062 19.6875 -18.671875 19.6875 -17.140625 L 19.6875 -15.71875 C 19.6875 -14.851562 19.554688 -14.113281 19.296875 -13.5 C 19.035156 -12.894531 18.585938 -12.457031 17.953125 -12.1875 C 19.066406 -12.0625 19.96875 -11.601562 20.65625 -10.8125 C 21.351562 -10.03125 21.703125 -8.988281 21.703125 -7.6875 L 21.703125 -1.109375 C 21.703125 -0.722656 21.613281 -0.441406 21.4375 -0.265625 C 21.257812 -0.0859375 20.972656 0 20.578125 0 L 15.78125 0 C 15.382812 0 15.097656 -0.0859375 14.921875 -0.265625 C 14.742188 -0.441406 14.65625 -0.722656 14.65625 -1.109375 L 14.65625 -5.859375 C 14.65625 -6.316406 14.566406 -6.648438 14.390625 -6.859375 C 14.222656 -7.078125 13.921875 -7.1875 13.484375 -7.1875 L 9.140625 -7.1875 L 9.140625 -1.109375 C 9.140625 -0.722656 9.050781 -0.441406 8.875 -0.265625 C 8.707031 -0.0859375 8.425781 0 8.03125 0 Z M 8.03125 0 "/></g></g></g><g fill="#ff00ff" fill-opacity="1"><g transform="translate(166.494741, 88.80316)"><g><path d="M 19.1875 0 L 9.421875 0 C 6.835938 0 4.921875 -0.515625 3.671875 -1.546875 C 2.421875 -2.578125 1.796875 -4.171875 1.796875 -6.328125 L 1.796875 -16 C 1.796875 -18.144531 2.421875 -19.734375 3.671875 -20.765625 C 4.921875 -21.796875 6.835938 -22.3125 9.421875 -22.3125 L 17.171875 -22.3125 C 17.566406 -22.3125 17.851562 -22.222656 18.03125 -22.046875 C 18.207031 -21.878906 18.296875 -21.597656 18.296875 -21.203125 L 18.296875 -17.453125 C 18.296875 -17.054688 18.207031 -16.769531 18.03125 -16.59375 C 17.851562 -16.425781 17.566406 -16.34375 17.171875 -16.34375 L 10.71875 -16.34375 C 10.082031 -16.34375 9.609375 -16.210938 9.296875 -15.953125 C 8.984375 -15.691406 8.828125 -15.300781 8.828125 -14.78125 L 8.828125 -7.375 C 8.828125 -6.863281 8.945312 -6.484375 9.1875 -6.234375 C 9.425781 -5.984375 9.785156 -5.859375 10.265625 -5.859375 L 13.265625 -5.859375 L 13.265625 -10.6875 C 13.265625 -11.082031 13.351562 -11.367188 13.53125 -11.546875 C 13.707031 -11.722656 13.992188 -11.8125 14.390625 -11.8125 L 19.1875 -11.8125 C 19.582031 -11.8125 19.867188 -11.722656 20.046875 -11.546875 C 20.222656 -11.367188 20.3125 -11.082031 20.3125 -10.6875 L 20.3125 -1.109375 C 20.3125 -0.722656 20.222656 -0.441406 20.046875 -0.265625 C 19.867188 -0.0859375 19.582031 0 19.1875 0 Z M 19.1875 0 "/></g></g></g><g fill="#ff00ff" fill-opacity="1"><g transform="translate(188.440011, 88.80316)"><g><path d="M 17.640625 0 L 3.25 0 C 2.863281 0 2.582031 -0.0859375 2.40625 -0.265625 C 2.226562 -0.441406 2.140625 -0.722656 2.140625 -1.109375 L 2.140625 -21.203125 C 2.140625 -21.597656 2.226562 -21.878906 2.40625 -22.046875 C 2.582031 -22.222656 2.863281 -22.3125 3.25 -22.3125 L 17.640625 -22.3125 C 18.035156 -22.3125 18.316406 -22.222656 18.484375 -22.046875 C 18.660156 -21.878906 18.75 -21.597656 18.75 -21.203125 L 18.75 -17.578125 C 18.75 -17.179688 18.660156 -16.894531 18.484375 -16.71875 C 18.316406 -16.550781 18.035156 -16.46875 17.640625 -16.46875 L 9.078125 -16.46875 L 9.078125 -14.078125 L 15.125 -14.078125 C 15.519531 -14.078125 15.804688 -13.988281 15.984375 -13.8125 C 16.160156 -13.632812 16.25 -13.347656 16.25 -12.953125 L 16.25 -9.640625 C 16.25 -9.242188 16.160156 -8.957031 15.984375 -8.78125 C 15.804688 -8.613281 15.519531 -8.53125 15.125 -8.53125 L 9.078125 -8.53125 L 9.078125 -5.859375 L 17.640625 -5.859375 C 18.035156 -5.859375 18.316406 -5.769531 18.484375 -5.59375 C 18.660156 -5.414062 18.75 -5.132812 18.75 -4.75 L 18.75 -1.109375 C 18.75 -0.722656 18.660156 -0.441406 18.484375 -0.265625 C 18.316406 -0.0859375 18.035156 0 17.640625 0 Z M 17.640625 0 "/></g></g></g><g fill="#ff00ff" fill-opacity="1"><g transform="translate(208.711491, 88.80316)"><g><path d="M 7.875 0 L 3.25 0 C 2.863281 0 2.582031 -0.0859375 2.40625 -0.265625 C 2.226562 -0.441406 2.140625 -0.722656 2.140625 -1.109375 L 2.140625 -21.203125 C 2.140625 -21.597656 2.226562 -21.878906 2.40625 -22.046875 C 2.582031 -22.222656 2.863281 -22.3125 3.25 -22.3125 L 8.25 -22.3125 C 8.570312 -22.3125 8.84375 -22.238281 9.0625 -22.09375 C 9.28125 -21.957031 9.484375 -21.722656 9.671875 -21.390625 L 12.46875 -16.34375 C 12.5625 -16.15625 12.644531 -16.019531 12.71875 -15.9375 C 12.789062 -15.851562 12.890625 -15.8125 13.015625 -15.8125 L 13.296875 -15.8125 C 13.421875 -15.8125 13.519531 -15.851562 13.59375 -15.9375 C 13.664062 -16.019531 13.753906 -16.15625 13.859375 -16.34375 L 16.609375 -21.390625 C 16.796875 -21.722656 17 -21.957031 17.21875 -22.09375 C 17.4375 -22.238281 17.710938 -22.3125 18.046875 -22.3125 L 23.0625 -22.3125 C 23.457031 -22.3125 23.742188 -22.222656 23.921875 -22.046875 C 24.097656 -21.878906 24.1875 -21.597656 24.1875 -21.203125 L 24.1875 -1.109375 C 24.1875 -0.722656 24.097656 -0.441406 23.921875 -0.265625 C 23.742188 -0.0859375 23.457031 0 23.0625 0 L 18.296875 0 C 17.898438 0 17.613281 -0.0859375 17.4375 -0.265625 C 17.257812 -0.441406 17.171875 -0.722656 17.171875 -1.109375 L 17.171875 -12.03125 L 15.34375 -8.65625 C 15.15625 -8.300781 14.929688 -8.046875 14.671875 -7.890625 C 14.421875 -7.734375 14.097656 -7.65625 13.703125 -7.65625 L 12.46875 -7.65625 C 12.070312 -7.65625 11.742188 -7.734375 11.484375 -7.890625 C 11.222656 -8.046875 11 -8.300781 10.8125 -8.65625 L 8.984375 -12.03125 L 8.984375 -1.109375 C 8.984375 -0.722656 8.894531 -0.441406 8.71875 -0.265625 C 8.550781 -0.0859375 8.269531 0 7.875 0 Z M 7.875 0 "/></g></g></g><g fill="#ff00ff" fill-opacity="1"><g transform="translate(235.027212, 88.80316)"><g><path d="M 21.046875 -5.859375 C 21.046875 -4.910156 20.90625 -4.046875 20.625 -3.265625 C 20.351562 -2.492188 19.859375 -1.832031 19.140625 -1.28125 C 18.429688 -0.738281 17.453125 -0.3125 16.203125 0 C 14.953125 0.3125 13.363281 0.46875 11.4375 0.46875 C 9.519531 0.46875 7.929688 0.3125 6.671875 0 C 5.410156 -0.3125 4.421875 -0.738281 3.703125 -1.28125 C 2.992188 -1.832031 2.5 -2.492188 2.21875 -3.265625 C 1.9375 -4.046875 1.796875 -4.910156 1.796875 -5.859375 L 1.796875 -16.4375 C 1.796875 -17.382812 1.9375 -18.242188 2.21875 -19.015625 C 2.5 -19.796875 2.992188 -20.460938 3.703125 -21.015625 C 4.421875 -21.578125 5.410156 -22.007812 6.671875 -22.3125 C 7.929688 -22.625 9.519531 -22.78125 11.4375 -22.78125 C 13.363281 -22.78125 14.953125 -22.625 16.203125 -22.3125 C 17.453125 -22.007812 18.429688 -21.578125 19.140625 -21.015625 C 19.859375 -20.460938 20.351562 -19.796875 20.625 -19.015625 C 20.90625 -18.242188 21.046875 -17.382812 21.046875 -16.4375 Z M 8.828125 -6.96875 C 8.828125 -6.5625 8.984375 -6.21875 9.296875 -5.9375 C 9.609375 -5.65625 10.320312 -5.515625 11.4375 -5.515625 C 12.550781 -5.515625 13.265625 -5.65625 13.578125 -5.9375 C 13.890625 -6.21875 14.046875 -6.5625 14.046875 -6.96875 L 14.046875 -15.3125 C 14.046875 -15.707031 13.890625 -16.039062 13.578125 -16.3125 C 13.265625 -16.59375 12.550781 -16.734375 11.4375 -16.734375 C 10.320312 -16.734375 9.609375 -16.59375 9.296875 -16.3125 C 8.984375 -16.039062 8.828125 -15.707031 8.828125 -15.3125 Z M 8.828125 -6.96875 "/></g></g></g><g fill="#ff00ff" fill-opacity="1"><g transform="translate(257.871369, 88.80316)"><g><path d="M 7.90625 0 L 3.25 0 C 2.863281 0 2.582031 -0.0859375 2.40625 -0.265625 C 2.226562 -0.441406 2.140625 -0.722656 2.140625 -1.109375 L 2.140625 -21.203125 C 2.140625 -21.597656 2.226562 -21.878906 2.40625 -22.046875 C 2.582031 -22.222656 2.863281 -22.3125 3.25 -22.3125 L 6.484375 -22.3125 C 6.867188 -22.3125 7.203125 -22.25 7.484375 -22.125 C 7.765625 -22.007812 8.039062 -21.796875 8.3125 -21.484375 L 14.328125 -14.59375 L 14.328125 -21.203125 C 14.328125 -21.597656 14.410156 -21.878906 14.578125 -22.046875 C 14.753906 -22.222656 15.039062 -22.3125 15.4375 -22.3125 L 20.09375 -22.3125 C 20.476562 -22.3125 20.757812 -22.222656 20.9375 -22.046875 C 21.113281 -21.878906 21.203125 -21.597656 21.203125 -21.203125 L 21.203125 -1.109375 C 21.203125 -0.722656 21.113281 -0.441406 20.9375 -0.265625 C 20.757812 -0.0859375 20.476562 0 20.09375 0 L 15.4375 0 C 15.039062 0 14.753906 -0.0859375 14.578125 -0.265625 C 14.410156 -0.441406 14.328125 -0.722656 14.328125 -1.109375 L 14.328125 -4.921875 L 9.015625 -11.34375 L 9.015625 -1.109375 C 9.015625 -0.722656 8.925781 -0.441406 8.75 -0.265625 C 8.582031 -0.0859375 8.300781 0 7.90625 0 Z M 7.90625 0 "/></g></g></g><g fill="#ff00ff" fill-opacity="1"><g transform="translate(281.211467, 88.80316)"><g><path d="M 7.90625 0 L 3.25 0 C 2.863281 0 2.582031 -0.0859375 2.40625 -0.265625 C 2.226562 -0.441406 2.140625 -0.722656 2.140625 -1.109375 L 2.140625 -21.203125 C 2.140625 -21.597656 2.226562 -21.878906 2.40625 -22.046875 C 2.582031 -22.222656 2.863281 -22.3125 3.25 -22.3125 L 6.484375 -22.3125 C 6.867188 -22.3125 7.203125 -22.25 7.484375 -22.125 C 7.765625 -22.007812 8.039062 -21.796875 8.3125 -21.484375 L 14.328125 -14.59375 L 14.328125 -21.203125 C 14.328125 -21.597656 14.410156 -21.878906 14.578125 -22.046875 C 14.753906 -22.222656 15.039062 -22.3125 15.4375 -22.3125 L 20.09375 -22.3125 C 20.476562 -22.3125 20.757812 -22.222656 20.9375 -22.046875 C 21.113281 -21.878906 21.203125 -21.597656 21.203125 -21.203125 L 21.203125 -1.109375 C 21.203125 -0.722656 21.113281 -0.441406 20.9375 -0.265625 C 20.757812 -0.0859375 20.476562 0 20.09375 0 L 15.4375 0 C 15.039062 0 14.753906 -0.0859375 14.578125 -0.265625 C 14.410156 -0.441406 14.328125 -0.722656 14.328125 -1.109375 L 14.328125 -4.921875 L 9.015625 -11.34375 L 9.015625 -1.109375 C 9.015625 -0.722656 8.925781 -0.441406 8.75 -0.265625 C 8.582031 -0.0859375 8.300781 0 7.90625 0 Z M 7.90625 0 "/></g></g></g><g fill="#ff00ff" fill-opacity="1"><g transform="translate(304.551565, 88.80316)"><g><path d="M 10.234375 -15.8125 L 8.765625 -11.09375 L 13.640625 -11.09375 L 12.1875 -15.8125 C 12.101562 -16 12.015625 -16.132812 11.921875 -16.21875 C 11.828125 -16.300781 11.71875 -16.34375 11.59375 -16.34375 L 10.8125 -16.34375 C 10.695312 -16.34375 10.59375 -16.300781 10.5 -16.21875 C 10.40625 -16.132812 10.316406 -16 10.234375 -15.8125 Z M 8.46875 -1.109375 C 8.46875 -0.722656 8.378906 -0.441406 8.203125 -0.265625 C 8.023438 -0.0859375 7.738281 0 7.34375 0 L 2.796875 0 C 2.398438 0 2.113281 -0.0859375 1.9375 -0.265625 C 1.757812 -0.441406 1.671875 -0.722656 1.671875 -1.109375 L 1.671875 -9.296875 C 1.671875 -9.921875 1.769531 -10.632812 1.96875 -11.4375 C 2.164062 -12.238281 2.472656 -13.179688 2.890625 -14.265625 L 5.578125 -21.296875 C 5.703125 -21.648438 5.894531 -21.90625 6.15625 -22.0625 C 6.414062 -22.226562 6.75 -22.3125 7.15625 -22.3125 L 15.5 -22.3125 C 15.894531 -22.3125 16.21875 -22.226562 16.46875 -22.0625 C 16.726562 -21.90625 16.921875 -21.648438 17.046875 -21.296875 L 19.75 -14.265625 C 20.15625 -13.179688 20.457031 -12.238281 20.65625 -11.4375 C 20.851562 -10.632812 20.953125 -9.921875 20.953125 -9.296875 L 20.953125 -1.109375 C 20.953125 -0.722656 20.863281 -0.441406 20.6875 -0.265625 C 20.507812 -0.0859375 20.226562 0 19.84375 0 L 15.15625 0 C 14.738281 0 14.429688 -0.0859375 14.234375 -0.265625 C 14.046875 -0.441406 13.953125 -0.722656 13.953125 -1.109375 L 13.953125 -5.453125 L 8.46875 -5.453125 Z M 8.46875 -1.109375 "/></g></g></g><g fill="#ff00ff" fill-opacity="1"><g transform="translate(327.178753, 88.80316)"><g><path d="M 2.765625 0 C 2.367188 0 2.082031 -0.0859375 1.90625 -0.265625 C 1.726562 -0.441406 1.640625 -0.722656 1.640625 -1.109375 L 1.640625 -4.8125 C 1.640625 -5.195312 1.726562 -5.476562 1.90625 -5.65625 C 2.082031 -5.832031 2.367188 -5.921875 2.765625 -5.921875 L 5.828125 -5.921875 L 5.828125 -16.34375 L 2.765625 -16.34375 C 2.367188 -16.34375 2.082031 -16.425781 1.90625 -16.59375 C 1.726562 -16.769531 1.640625 -17.054688 1.640625 -17.453125 L 1.640625 -21.203125 C 1.640625 -21.597656 1.726562 -21.878906 1.90625 -22.046875 C 2.082031 -22.222656 2.367188 -22.3125 2.765625 -22.3125 L 15.96875 -22.3125 C 16.351562 -22.3125 16.632812 -22.222656 16.8125 -22.046875 C 16.988281 -21.878906 17.078125 -21.597656 17.078125 -21.203125 L 17.078125 -17.453125 C 17.078125 -17.054688 16.988281 -16.769531 16.8125 -16.59375 C 16.632812 -16.425781 16.351562 -16.34375 15.96875 -16.34375 L 12.953125 -16.34375 L 12.953125 -5.921875 L 15.96875 -5.921875 C 16.351562 -5.921875 16.632812 -5.832031 16.8125 -5.65625 C 16.988281 -5.476562 17.078125 -5.195312 17.078125 -4.8125 L 17.078125 -1.109375 C 17.078125 -0.722656 16.988281 -0.441406 16.8125 -0.265625 C 16.632812 -0.0859375 16.351562 0 15.96875 0 Z M 2.765625 0 "/></g></g></g><g fill="#ff00ff" fill-opacity="1"><g transform="translate(345.931407, 88.80316)"><g><path d="M 17.640625 0 L 3.25 0 C 2.863281 0 2.582031 -0.0859375 2.40625 -0.265625 C 2.226562 -0.441406 2.140625 -0.722656 2.140625 -1.109375 L 2.140625 -21.203125 C 2.140625 -21.597656 2.226562 -21.878906 2.40625 -22.046875 C 2.582031 -22.222656 2.863281 -22.3125 3.25 -22.3125 L 17.640625 -22.3125 C 18.035156 -22.3125 18.316406 -22.222656 18.484375 -22.046875 C 18.660156 -21.878906 18.75 -21.597656 18.75 -21.203125 L 18.75 -17.578125 C 18.75 -17.179688 18.660156 -16.894531 18.484375 -16.71875 C 18.316406 -16.550781 18.035156 -16.46875 17.640625 -16.46875 L 9.078125 -16.46875 L 9.078125 -14.078125 L 15.125 -14.078125 C 15.519531 -14.078125 15.804688 -13.988281 15.984375 -13.8125 C 16.160156 -13.632812 16.25 -13.347656 16.25 -12.953125 L 16.25 -9.640625 C 16.25 -9.242188 16.160156 -8.957031 15.984375 -8.78125 C 15.804688 -8.613281 15.519531 -8.53125 15.125 -8.53125 L 9.078125 -8.53125 L 9.078125 -5.859375 L 17.640625 -5.859375 C 18.035156 -5.859375 18.316406 -5.769531 18.484375 -5.59375 C 18.660156 -5.414062 18.75 -5.132812 18.75 -4.75 L 18.75 -1.109375 C 18.75 -0.722656 18.660156 -0.441406 18.484375 -0.265625 C 18.316406 -0.0859375 18.035156 0 17.640625 0 Z M 17.640625 0 "/></g></g></g><g fill="#00ffff" fill-opacity="1"><g transform="translate(103.080211, 87.296803)"><g><path d="M 8.0625 0 L 3.25 0 C 2.863281 0 2.582031 -0.0859375 2.40625 -0.265625 C 2.226562 -0.441406 2.140625 -0.722656 2.140625 -1.109375 L 2.140625 -21.203125 C 2.140625 -21.597656 2.226562 -21.878906 2.40625 -22.046875 C 2.582031 -22.222656 2.863281 -22.3125 3.25 -22.3125 L 17.078125 -22.3125 C 17.472656 -22.3125 17.757812 -22.222656 17.9375 -22.046875 C 18.113281 -21.878906 18.203125 -21.597656 18.203125 -21.203125 L 18.203125 -17.515625 C 18.203125 -17.117188 18.113281 -16.832031 17.9375 -16.65625 C 17.757812 -16.488281 17.472656 -16.40625 17.078125 -16.40625 L 9.171875 -16.40625 L 9.171875 -13.171875 L 14.5625 -13.171875 C 14.957031 -13.171875 15.242188 -13.082031 15.421875 -12.90625 C 15.597656 -12.726562 15.6875 -12.445312 15.6875 -12.0625 L 15.6875 -8.34375 C 15.6875 -7.945312 15.597656 -7.660156 15.421875 -7.484375 C 15.242188 -7.304688 14.957031 -7.21875 14.5625 -7.21875 L 9.171875 -7.21875 L 9.171875 -1.109375 C 9.171875 -0.722656 9.082031 -0.441406 8.90625 -0.265625 C 8.738281 -0.0859375 8.457031 0 8.0625 0 Z M 8.0625 0 "/></g></g></g><g fill="#00ffff" fill-opacity="1"><g transform="translate(122.235822, 87.296803)"><g><path d="M 21.046875 -5.859375 C 21.046875 -4.910156 20.90625 -4.046875 20.625 -3.265625 C 20.351562 -2.492188 19.859375 -1.832031 19.140625 -1.28125 C 18.429688 -0.738281 17.453125 -0.3125 16.203125 0 C 14.953125 0.3125 13.363281 0.46875 11.4375 0.46875 C 9.519531 0.46875 7.929688 0.3125 6.671875 0 C 5.410156 -0.3125 4.421875 -0.738281 3.703125 -1.28125 C 2.992188 -1.832031 2.5 -2.492188 2.21875 -3.265625 C 1.9375 -4.046875 1.796875 -4.910156 1.796875 -5.859375 L 1.796875 -16.4375 C 1.796875 -17.382812 1.9375 -18.242188 2.21875 -19.015625 C 2.5 -19.796875 2.992188 -20.460938 3.703125 -21.015625 C 4.421875 -21.578125 5.410156 -22.007812 6.671875 -22.3125 C 7.929688 -22.625 9.519531 -22.78125 11.4375 -22.78125 C 13.363281 -22.78125 14.953125 -22.625 16.203125 -22.3125 C 17.453125 -22.007812 18.429688 -21.578125 19.140625 -21.015625 C 19.859375 -20.460938 20.351562 -19.796875 20.625 -19.015625 C 20.90625 -18.242188 21.046875 -17.382812 21.046875 -16.4375 Z M 8.828125 -6.96875 C 8.828125 -6.5625 8.984375 -6.21875 9.296875 -5.9375 C 9.609375 -5.65625 10.320312 -5.515625 11.4375 -5.515625 C 12.550781 -5.515625 13.265625 -5.65625 13.578125 -5.9375 C 13.890625 -6.21875 14.046875 -6.5625 14.046875 -6.96875 L 14.046875 -15.3125 C 14.046875 -15.707031 13.890625 -16.039062 13.578125 -16.3125 C 13.265625 -16.59375 12.550781 -16.734375 11.4375 -16.734375 C 10.320312 -16.734375 9.609375 -16.59375 9.296875 -16.3125 C 8.984375 -16.039062 8.828125 -15.707031 8.828125 -15.3125 Z M 8.828125 -6.96875 "/></g></g></g><g fill="#00ffff" fill-opacity="1"><g transform="translate(145.07998, 87.296803)"><g><path d="M 9.140625 -16.734375 L 9.140625 -12.765625 L 11.46875 -12.765625 C 12.007812 -12.765625 12.367188 -12.90625 12.546875 -13.1875 C 12.734375 -13.46875 12.828125 -13.816406 12.828125 -14.234375 L 12.828125 -15.28125 C 12.828125 -15.695312 12.734375 -16.039062 12.546875 -16.3125 C 12.367188 -16.59375 12.007812 -16.734375 11.46875 -16.734375 Z M 8.03125 0 L 3.25 0 C 2.863281 0 2.582031 -0.0859375 2.40625 -0.265625 C 2.226562 -0.441406 2.140625 -0.722656 2.140625 -1.109375 L 2.140625 -21.203125 C 2.140625 -21.597656 2.226562 -21.878906 2.40625 -22.046875 C 2.582031 -22.222656 2.863281 -22.3125 3.25 -22.3125 L 13.578125 -22.3125 C 15.890625 -22.3125 17.484375 -21.832031 18.359375 -20.875 C 19.242188 -19.914062 19.6875 -18.671875 19.6875 -17.140625 L 19.6875 -15.71875 C 19.6875 -14.851562 19.554688 -14.113281 19.296875 -13.5 C 19.035156 -12.894531 18.585938 -12.457031 17.953125 -12.1875 C 19.066406 -12.0625 19.96875 -11.601562 20.65625 -10.8125 C 21.351562 -10.03125 21.703125 -8.988281 21.703125 -7.6875 L 21.703125 -1.109375 C 21.703125 -0.722656 21.613281 -0.441406 21.4375 -0.265625 C 21.257812 -0.0859375 20.972656 0 20.578125 0 L 15.78125 0 C 15.382812 0 15.097656 -0.0859375 14.921875 -0.265625 C 14.742188 -0.441406 14.65625 -0.722656 14.65625 -1.109375 L 14.65625 -5.859375 C 14.65625 -6.316406 14.566406 -6.648438 14.390625 -6.859375 C 14.222656 -7.078125 13.921875 -7.1875 13.484375 -7.1875 L 9.140625 -7.1875 L 9.140625 -1.109375 C 9.140625 -0.722656 9.050781 -0.441406 8.875 -0.265625 C 8.707031 -0.0859375 8.425781 0 8.03125 0 Z M 8.03125 0 "/></g></g></g><g fill="#00ffff" fill-opacity="1"><g transform="translate(168.110114, 87.296803)"><g><path d="M 19.1875 0 L 9.421875 0 C 6.835938 0 4.921875 -0.515625 3.671875 -1.546875 C 2.421875 -2.578125 1.796875 -4.171875 1.796875 -6.328125 L 1.796875 -16 C 1.796875 -18.144531 2.421875 -19.734375 3.671875 -20.765625 C 4.921875 -21.796875 6.835938 -22.3125 9.421875 -22.3125 L 17.171875 -22.3125 C 17.566406 -22.3125 17.851562 -22.222656 18.03125 -22.046875 C 18.207031 -21.878906 18.296875 -21.597656 18.296875 -21.203125 L 18.296875 -17.453125 C 18.296875 -17.054688 18.207031 -16.769531 18.03125 -16.59375 C 17.851562 -16.425781 17.566406 -16.34375 17.171875 -16.34375 L 10.71875 -16.34375 C 10.082031 -16.34375 9.609375 -16.210938 9.296875 -15.953125 C 8.984375 -15.691406 8.828125 -15.300781 8.828125 -14.78125 L 8.828125 -7.375 C 8.828125 -6.863281 8.945312 -6.484375 9.1875 -6.234375 C 9.425781 -5.984375 9.785156 -5.859375 10.265625 -5.859375 L 13.265625 -5.859375 L 13.265625 -10.6875 C 13.265625 -11.082031 13.351562 -11.367188 13.53125 -11.546875 C 13.707031 -11.722656 13.992188 -11.8125 14.390625 -11.8125 L 19.1875 -11.8125 C 19.582031 -11.8125 19.867188 -11.722656 20.046875 -11.546875 C 20.222656 -11.367188 20.3125 -11.082031 20.3125 -10.6875 L 20.3125 -1.109375 C 20.3125 -0.722656 20.222656 -0.441406 20.046875 -0.265625 C 19.867188 -0.0859375 19.582031 0 19.1875 0 Z M 19.1875 0 "/></g></g></g><g fill="#00ffff" fill-opacity="1"><g transform="translate(190.055384, 87.296803)"><g><path d="M 17.640625 0 L 3.25 0 C 2.863281 0 2.582031 -0.0859375 2.40625 -0.265625 C 2.226562 -0.441406 2.140625 -0.722656 2.140625 -1.109375 L 2.140625 -21.203125 C 2.140625 -21.597656 2.226562 -21.878906 2.40625 -22.046875 C 2.582031 -22.222656 2.863281 -22.3125 3.25 -22.3125 L 17.640625 -22.3125 C 18.035156 -22.3125 18.316406 -22.222656 18.484375 -22.046875 C 18.660156 -21.878906 18.75 -21.597656 18.75 -21.203125 L 18.75 -17.578125 C 18.75 -17.179688 18.660156 -16.894531 18.484375 -16.71875 C 18.316406 -16.550781 18.035156 -16.46875 17.640625 -16.46875 L 9.078125 -16.46875 L 9.078125 -14.078125 L 15.125 -14.078125 C 15.519531 -14.078125 15.804688 -13.988281 15.984375 -13.8125 C 16.160156 -13.632812 16.25 -13.347656 16.25 -12.953125 L 16.25 -9.640625 C 16.25 -9.242188 16.160156 -8.957031 15.984375 -8.78125 C 15.804688 -8.613281 15.519531 -8.53125 15.125 -8.53125 L 9.078125 -8.53125 L 9.078125 -5.859375 L 17.640625 -5.859375 C 18.035156 -5.859375 18.316406 -5.769531 18.484375 -5.59375 C 18.660156 -5.414062 18.75 -5.132812 18.75 -4.75 L 18.75 -1.109375 C 18.75 -0.722656 18.660156 -0.441406 18.484375 -0.265625 C 18.316406 -0.0859375 18.035156 0 17.640625 0 Z M 17.640625 0 "/></g></g></g><g fill="#00ffff" fill-opacity="1"><g transform="translate(210.326863, 87.296803)"><g><path d="M 7.875 0 L 3.25 0 C 2.863281 0 2.582031 -0.0859375 2.40625 -0.265625 C 2.226562 -0.441406 2.140625 -0.722656 2.140625 -1.109375 L 2.140625 -21.203125 C 2.140625 -21.597656 2.226562 -21.878906 2.40625 -22.046875 C 2.582031 -22.222656 2.863281 -22.3125 3.25 -22.3125 L 8.25 -22.3125 C 8.570312 -22.3125 8.84375 -22.238281 9.0625 -22.09375 C 9.28125 -21.957031 9.484375 -21.722656 9.671875 -21.390625 L 12.46875 -16.34375 C 12.5625 -16.15625 12.644531 -16.019531 12.71875 -15.9375 C 12.789062 -15.851562 12.890625 -15.8125 13.015625 -15.8125 L 13.296875 -15.8125 C 13.421875 -15.8125 13.519531 -15.851562 13.59375 -15.9375 C 13.664062 -16.019531 13.753906 -16.15625 13.859375 -16.34375 L 16.609375 -21.390625 C 16.796875 -21.722656 17 -21.957031 17.21875 -22.09375 C 17.4375 -22.238281 17.710938 -22.3125 18.046875 -22.3125 L 23.0625 -22.3125 C 23.457031 -22.3125 23.742188 -22.222656 23.921875 -22.046875 C 24.097656 -21.878906 24.1875 -21.597656 24.1875 -21.203125 L 24.1875 -1.109375 C 24.1875 -0.722656 24.097656 -0.441406 23.921875 -0.265625 C 23.742188 -0.0859375 23.457031 0 23.0625 0 L 18.296875 0 C 17.898438 0 17.613281 -0.0859375 17.4375 -0.265625 C 17.257812 -0.441406 17.171875 -0.722656 17.171875 -1.109375 L 17.171875 -12.03125 L 15.34375 -8.65625 C 15.15625 -8.300781 14.929688 -8.046875 14.671875 -7.890625 C 14.421875 -7.734375 14.097656 -7.65625 13.703125 -7.65625 L 12.46875 -7.65625 C 12.070312 -7.65625 11.742188 -7.734375 11.484375 -7.890625 C 11.222656 -8.046875 11 -8.300781 10.8125 -8.65625 L 8.984375 -12.03125 L 8.984375 -1.109375 C 8.984375 -0.722656 8.894531 -0.441406 8.71875 -0.265625 C 8.550781 -0.0859375 8.269531 0 7.875 0 Z M 7.875 0 "/></g></g></g><g fill="#00ffff" fill-opacity="1"><g transform="translate(236.642585, 87.296803)"><g><path d="M 21.046875 -5.859375 C 21.046875 -4.910156 20.90625 -4.046875 20.625 -3.265625 C 20.351562 -2.492188 19.859375 -1.832031 19.140625 -1.28125 C 18.429688 -0.738281 17.453125 -0.3125 16.203125 0 C 14.953125 0.3125 13.363281 0.46875 11.4375 0.46875 C 9.519531 0.46875 7.929688 0.3125 6.671875 0 C 5.410156 -0.3125 4.421875 -0.738281 3.703125 -1.28125 C 2.992188 -1.832031 2.5 -2.492188 2.21875 -3.265625 C 1.9375 -4.046875 1.796875 -4.910156 1.796875 -5.859375 L 1.796875 -16.4375 C 1.796875 -17.382812 1.9375 -18.242188 2.21875 -19.015625 C 2.5 -19.796875 2.992188 -20.460938 3.703125 -21.015625 C 4.421875 -21.578125 5.410156 -22.007812 6.671875 -22.3125 C 7.929688 -22.625 9.519531 -22.78125 11.4375 -22.78125 C 13.363281 -22.78125 14.953125 -22.625 16.203125 -22.3125 C 17.453125 -22.007812 18.429688 -21.578125 19.140625 -21.015625 C 19.859375 -20.460938 20.351562 -19.796875 20.625 -19.015625 C 20.90625 -18.242188 21.046875 -17.382812 21.046875 -16.4375 Z M 8.828125 -6.96875 C 8.828125 -6.5625 8.984375 -6.21875 9.296875 -5.9375 C 9.609375 -5.65625 10.320312 -5.515625 11.4375 -5.515625 C 12.550781 -5.515625 13.265625 -5.65625 13.578125 -5.9375 C 13.890625 -6.21875 14.046875 -6.5625 14.046875 -6.96875 L 14.046875 -15.3125 C 14.046875 -15.707031 13.890625 -16.039062 13.578125 -16.3125 C 13.265625 -16.59375 12.550781 -16.734375 11.4375 -16.734375 C 10.320312 -16.734375 9.609375 -16.59375 9.296875 -16.3125 C 8.984375 -16.039062 8.828125 -15.707031 8.828125 -15.3125 Z M 8.828125 -6.96875 "/></g></g></g><g fill="#00ffff" fill-opacity="1"><g transform="translate(259.486742, 87.296803)"><g><path d="M 7.90625 0 L 3.25 0 C 2.863281 0 2.582031 -0.0859375 2.40625 -0.265625 C 2.226562 -0.441406 2.140625 -0.722656 2.140625 -1.109375 L 2.140625 -21.203125 C 2.140625 -21.597656 2.226562 -21.878906 2.40625 -22.046875 C 2.582031 -22.222656 2.863281 -22.3125 3.25 -22.3125 L 6.484375 -22.3125 C 6.867188 -22.3125 7.203125 -22.25 7.484375 -22.125 C 7.765625 -22.007812 8.039062 -21.796875 8.3125 -21.484375 L 14.328125 -14.59375 L 14.328125 -21.203125 C 14.328125 -21.597656 14.410156 -21.878906 14.578125 -22.046875 C 14.753906 -22.222656 15.039062 -22.3125 15.4375 -22.3125 L 20.09375 -22.3125 C 20.476562 -22.3125 20.757812 -22.222656 20.9375 -22.046875 C 21.113281 -21.878906 21.203125 -21.597656 21.203125 -21.203125 L 21.203125 -1.109375 C 21.203125 -0.722656 21.113281 -0.441406 20.9375 -0.265625 C 20.757812 -0.0859375 20.476562 0 20.09375 0 L 15.4375 0 C 15.039062 0 14.753906 -0.0859375 14.578125 -0.265625 C 14.410156 -0.441406 14.328125 -0.722656 14.328125 -1.109375 L 14.328125 -4.921875 L 9.015625 -11.34375 L 9.015625 -1.109375 C 9.015625 -0.722656 8.925781 -0.441406 8.75 -0.265625 C 8.582031 -0.0859375 8.300781 0 7.90625 0 Z M 7.90625 0 "/></g></g></g><g fill="#00ffff" fill-opacity="1"><g transform="translate(282.82684, 87.296803)"><g><path d="M 7.90625 0 L 3.25 0 C 2.863281 0 2.582031 -0.0859375 2.40625 -0.265625 C 2.226562 -0.441406 2.140625 -0.722656 2.140625 -1.109375 L 2.140625 -21.203125 C 2.140625 -21.597656 2.226562 -21.878906 2.40625 -22.046875 C 2.582031 -22.222656 2.863281 -22.3125 3.25 -22.3125 L 6.484375 -22.3125 C 6.867188 -22.3125 7.203125 -22.25 7.484375 -22.125 C 7.765625 -22.007812 8.039062 -21.796875 8.3125 -21.484375 L 14.328125 -14.59375 L 14.328125 -21.203125 C 14.328125 -21.597656 14.410156 -21.878906 14.578125 -22.046875 C 14.753906 -22.222656 15.039062 -22.3125 15.4375 -22.3125 L 20.09375 -22.3125 C 20.476562 -22.3125 20.757812 -22.222656 20.9375 -22.046875 C 21.113281 -21.878906 21.203125 -21.597656 21.203125 -21.203125 L 21.203125 -1.109375 C 21.203125 -0.722656 21.113281 -0.441406 20.9375 -0.265625 C 20.757812 -0.0859375 20.476562 0 20.09375 0 L 15.4375 0 C 15.039062 0 14.753906 -0.0859375 14.578125 -0.265625 C 14.410156 -0.441406 14.328125 -0.722656 14.328125 -1.109375 L 14.328125 -4.921875 L 9.015625 -11.34375 L 9.015625 -1.109375 C 9.015625 -0.722656 8.925781 -0.441406 8.75 -0.265625 C 8.582031 -0.0859375 8.300781 0 7.90625 0 Z M 7.90625 0 "/></g></g></g><g fill="#00ffff" fill-opacity="1"><g transform="translate(306.166937, 87.296803)"><g><path d="M 10.234375 -15.8125 L 8.765625 -11.09375 L 13.640625 -11.09375 L 12.1875 -15.8125 C 12.101562 -16 12.015625 -16.132812 11.921875 -16.21875 C 11.828125 -16.300781 11.71875 -16.34375 11.59375 -16.34375 L 10.8125 -16.34375 C 10.695312 -16.34375 10.59375 -16.300781 10.5 -16.21875 C 10.40625 -16.132812 10.316406 -16 10.234375 -15.8125 Z M 8.46875 -1.109375 C 8.46875 -0.722656 8.378906 -0.441406 8.203125 -0.265625 C 8.023438 -0.0859375 7.738281 0 7.34375 0 L 2.796875 0 C 2.398438 0 2.113281 -0.0859375 1.9375 -0.265625 C 1.757812 -0.441406 1.671875 -0.722656 1.671875 -1.109375 L 1.671875 -9.296875 C 1.671875 -9.921875 1.769531 -10.632812 1.96875 -11.4375 C 2.164062 -12.238281 2.472656 -13.179688 2.890625 -14.265625 L 5.578125 -21.296875 C 5.703125 -21.648438 5.894531 -21.90625 6.15625 -22.0625 C 6.414062 -22.226562 6.75 -22.3125 7.15625 -22.3125 L 15.5 -22.3125 C 15.894531 -22.3125 16.21875 -22.226562 16.46875 -22.0625 C 16.726562 -21.90625 16.921875 -21.648438 17.046875 -21.296875 L 19.75 -14.265625 C 20.15625 -13.179688 20.457031 -12.238281 20.65625 -11.4375 C 20.851562 -10.632812 20.953125 -9.921875 20.953125 -9.296875 L 20.953125 -1.109375 C 20.953125 -0.722656 20.863281 -0.441406 20.6875 -0.265625 C 20.507812 -0.0859375 20.226562 0 19.84375 0 L 15.15625 0 C 14.738281 0 14.429688 -0.0859375 14.234375 -0.265625 C 14.046875 -0.441406 13.953125 -0.722656 13.953125 -1.109375 L 13.953125 -5.453125 L 8.46875 -5.453125 Z M 8.46875 -1.109375 "/></g></g></g><g fill="#00ffff" fill-opacity="1"><g transform="translate(328.794126, 87.296803)"><g><path d="M 2.765625 0 C 2.367188 0 2.082031 -0.0859375 1.90625 -0.265625 C 1.726562 -0.441406 1.640625 -0.722656 1.640625 -1.109375 L 1.640625 -4.8125 C 1.640625 -5.195312 1.726562 -5.476562 1.90625 -5.65625 C 2.082031 -5.832031 2.367188 -5.921875 2.765625 -5.921875 L 5.828125 -5.921875 L 5.828125 -16.34375 L 2.765625 -16.34375 C 2.367188 -16.34375 2.082031 -16.425781 1.90625 -16.59375 C 1.726562 -16.769531 1.640625 -17.054688 1.640625 -17.453125 L 1.640625 -21.203125 C 1.640625 -21.597656 1.726562 -21.878906 1.90625 -22.046875 C 2.082031 -22.222656 2.367188 -22.3125 2.765625 -22.3125 L 15.96875 -22.3125 C 16.351562 -22.3125 16.632812 -22.222656 16.8125 -22.046875 C 16.988281 -21.878906 17.078125 -21.597656 17.078125 -21.203125 L 17.078125 -17.453125 C 17.078125 -17.054688 16.988281 -16.769531 16.8125 -16.59375 C 16.632812 -16.425781 16.351562 -16.34375 15.96875 -16.34375 L 12.953125 -16.34375 L 12.953125 -5.921875 L 15.96875 -5.921875 C 16.351562 -5.921875 16.632812 -5.832031 16.8125 -5.65625 C 16.988281 -5.476562 17.078125 -5.195312 17.078125 -4.8125 L 17.078125 -1.109375 C 17.078125 -0.722656 16.988281 -0.441406 16.8125 -0.265625 C 16.632812 -0.0859375 16.351562 0 15.96875 0 Z M 2.765625 0 "/></g></g></g><g fill="#00ffff" fill-opacity="1"><g transform="translate(347.546779, 87.296803)"><g><path d="M 17.640625 0 L 3.25 0 C 2.863281 0 2.582031 -0.0859375 2.40625 -0.265625 C 2.226562 -0.441406 2.140625 -0.722656 2.140625 -1.109375 L 2.140625 -21.203125 C 2.140625 -21.597656 2.226562 -21.878906 2.40625 -22.046875 C 2.582031 -22.222656 2.863281 -22.3125 3.25 -22.3125 L 17.640625 -22.3125 C 18.035156 -22.3125 18.316406 -22.222656 18.484375 -22.046875 C 18.660156 -21.878906 18.75 -21.597656 18.75 -21.203125 L 18.75 -17.578125 C 18.75 -17.179688 18.660156 -16.894531 18.484375 -16.71875 C 18.316406 -16.550781 18.035156 -16.46875 17.640625 -16.46875 L 9.078125 -16.46875 L 9.078125 -14.078125 L 15.125 -14.078125 C 15.519531 -14.078125 15.804688 -13.988281 15.984375 -13.8125 C 16.160156 -13.632812 16.25 -13.347656 16.25 -12.953125 L 16.25 -9.640625 C 16.25 -9.242188 16.160156 -8.957031 15.984375 -8.78125 C 15.804688 -8.613281 15.519531 -8.53125 15.125 -8.53125 L 9.078125 -8.53125 L 9.078125 -5.859375 L 17.640625 -5.859375 C 18.035156 -5.859375 18.316406 -5.769531 18.484375 -5.59375 C 18.660156 -5.414062 18.75 -5.132812 18.75 -4.75 L 18.75 -1.109375 C 18.75 -0.722656 18.660156 -0.441406 18.484375 -0.265625 C 18.316406 -0.0859375 18.035156 0 17.640625 0 Z M 17.640625 0 "/></g></g></g><g fill="#7843e6" fill-opacity="1"><g transform="translate(102.272524, 88.049982)"><g><path d="M 8.0625 0 L 3.25 0 C 2.863281 0 2.582031 -0.0859375 2.40625 -0.265625 C 2.226562 -0.441406 2.140625 -0.722656 2.140625 -1.109375 L 2.140625 -21.203125 C 2.140625 -21.597656 2.226562 -21.878906 2.40625 -22.046875 C 2.582031 -22.222656 2.863281 -22.3125 3.25 -22.3125 L 17.078125 -22.3125 C 17.472656 -22.3125 17.757812 -22.222656 17.9375 -22.046875 C 18.113281 -21.878906 18.203125 -21.597656 18.203125 -21.203125 L 18.203125 -17.515625 C 18.203125 -17.117188 18.113281 -16.832031 17.9375 -16.65625 C 17.757812 -16.488281 17.472656 -16.40625 17.078125 -16.40625 L 9.171875 -16.40625 L 9.171875 -13.171875 L 14.5625 -13.171875 C 14.957031 -13.171875 15.242188 -13.082031 15.421875 -12.90625 C 15.597656 -12.726562 15.6875 -12.445312 15.6875 -12.0625 L 15.6875 -8.34375 C 15.6875 -7.945312 15.597656 -7.660156 15.421875 -7.484375 C 15.242188 -7.304688 14.957031 -7.21875 14.5625 -7.21875 L 9.171875 -7.21875 L 9.171875 -1.109375 C 9.171875 -0.722656 9.082031 -0.441406 8.90625 -0.265625 C 8.738281 -0.0859375 8.457031 0 8.0625 0 Z M 8.0625 0 "/></g></g></g><g fill="#7843e6" fill-opacity="1"><g transform="translate(121.428136, 88.049982)"><g><path d="M 21.046875 -5.859375 C 21.046875 -4.910156 20.90625 -4.046875 20.625 -3.265625 C 20.351562 -2.492188 19.859375 -1.832031 19.140625 -1.28125 C 18.429688 -0.738281 17.453125 -0.3125 16.203125 0 C 14.953125 0.3125 13.363281 0.46875 11.4375 0.46875 C 9.519531 0.46875 7.929688 0.3125 6.671875 0 C 5.410156 -0.3125 4.421875 -0.738281 3.703125 -1.28125 C 2.992188 -1.832031 2.5 -2.492188 2.21875 -3.265625 C 1.9375 -4.046875 1.796875 -4.910156 1.796875 -5.859375 L 1.796875 -16.4375 C 1.796875 -17.382812 1.9375 -18.242188 2.21875 -19.015625 C 2.5 -19.796875 2.992188 -20.460938 3.703125 -21.015625 C 4.421875 -21.578125 5.410156 -22.007812 6.671875 -22.3125 C 7.929688 -22.625 9.519531 -22.78125 11.4375 -22.78125 C 13.363281 -22.78125 14.953125 -22.625 16.203125 -22.3125 C 17.453125 -22.007812 18.429688 -21.578125 19.140625 -21.015625 C 19.859375 -20.460938 20.351562 -19.796875 20.625 -19.015625 C 20.90625 -18.242188 21.046875 -17.382812 21.046875 -16.4375 Z M 8.828125 -6.96875 C 8.828125 -6.5625 8.984375 -6.21875 9.296875 -5.9375 C 9.609375 -5.65625 10.320312 -5.515625 11.4375 -5.515625 C 12.550781 -5.515625 13.265625 -5.65625 13.578125 -5.9375 C 13.890625 -6.21875 14.046875 -6.5625 14.046875 -6.96875 L 14.046875 -15.3125 C 14.046875 -15.707031 13.890625 -16.039062 13.578125 -16.3125 C 13.265625 -16.59375 12.550781 -16.734375 11.4375 -16.734375 C 10.320312 -16.734375 9.609375 -16.59375 9.296875 -16.3125 C 8.984375 -16.039062 8.828125 -15.707031 8.828125 -15.3125 Z M 8.828125 -6.96875 "/></g></g></g><g fill="#7843e6" fill-opacity="1"><g transform="translate(144.272293, 88.049982)"><g><path d="M 9.140625 -16.734375 L 9.140625 -12.765625 L 11.46875 -12.765625 C 12.007812 -12.765625 12.367188 -12.90625 12.546875 -13.1875 C 12.734375 -13.46875 12.828125 -13.816406 12.828125 -14.234375 L 12.828125 -15.28125 C 12.828125 -15.695312 12.734375 -16.039062 12.546875 -16.3125 C 12.367188 -16.59375 12.007812 -16.734375 11.46875 -16.734375 Z M 8.03125 0 L 3.25 0 C 2.863281 0 2.582031 -0.0859375 2.40625 -0.265625 C 2.226562 -0.441406 2.140625 -0.722656 2.140625 -1.109375 L 2.140625 -21.203125 C 2.140625 -21.597656 2.226562 -21.878906 2.40625 -22.046875 C 2.582031 -22.222656 2.863281 -22.3125 3.25 -22.3125 L 13.578125 -22.3125 C 15.890625 -22.3125 17.484375 -21.832031 18.359375 -20.875 C 19.242188 -19.914062 19.6875 -18.671875 19.6875 -17.140625 L 19.6875 -15.71875 C 19.6875 -14.851562 19.554688 -14.113281 19.296875 -13.5 C 19.035156 -12.894531 18.585938 -12.457031 17.953125 -12.1875 C 19.066406 -12.0625 19.96875 -11.601562 20.65625 -10.8125 C 21.351562 -10.03125 21.703125 -8.988281 21.703125 -7.6875 L 21.703125 -1.109375 C 21.703125 -0.722656 21.613281 -0.441406 21.4375 -0.265625 C 21.257812 -0.0859375 20.972656 0 20.578125 0 L 15.78125 0 C 15.382812 0 15.097656 -0.0859375 14.921875 -0.265625 C 14.742188 -0.441406 14.65625 -0.722656 14.65625 -1.109375 L 14.65625 -5.859375 C 14.65625 -6.316406 14.566406 -6.648438 14.390625 -6.859375 C 14.222656 -7.078125 13.921875 -7.1875 13.484375 -7.1875 L 9.140625 -7.1875 L 9.140625 -1.109375 C 9.140625 -0.722656 9.050781 -0.441406 8.875 -0.265625 C 8.707031 -0.0859375 8.425781 0 8.03125 0 Z M 8.03125 0 "/></g></g></g><g fill="#7843e6" fill-opacity="1"><g transform="translate(167.302428, 88.049982)"><g><path d="M 19.1875 0 L 9.421875 0 C 6.835938 0 4.921875 -0.515625 3.671875 -1.546875 C 2.421875 -2.578125 1.796875 -4.171875 1.796875 -6.328125 L 1.796875 -16 C 1.796875 -18.144531 2.421875 -19.734375 3.671875 -20.765625 C 4.921875 -21.796875 6.835938 -22.3125 9.421875 -22.3125 L 17.171875 -22.3125 C 17.566406 -22.3125 17.851562 -22.222656 18.03125 -22.046875 C 18.207031 -21.878906 18.296875 -21.597656 18.296875 -21.203125 L 18.296875 -17.453125 C 18.296875 -17.054688 18.207031 -16.769531 18.03125 -16.59375 C 17.851562 -16.425781 17.566406 -16.34375 17.171875 -16.34375 L 10.71875 -16.34375 C 10.082031 -16.34375 9.609375 -16.210938 9.296875 -15.953125 C 8.984375 -15.691406 8.828125 -15.300781 8.828125 -14.78125 L 8.828125 -7.375 C 8.828125 -6.863281 8.945312 -6.484375 9.1875 -6.234375 C 9.425781 -5.984375 9.785156 -5.859375 10.265625 -5.859375 L 13.265625 -5.859375 L 13.265625 -10.6875 C 13.265625 -11.082031 13.351562 -11.367188 13.53125 -11.546875 C 13.707031 -11.722656 13.992188 -11.8125 14.390625 -11.8125 L 19.1875 -11.8125 C 19.582031 -11.8125 19.867188 -11.722656 20.046875 -11.546875 C 20.222656 -11.367188 20.3125 -11.082031 20.3125 -10.6875 L 20.3125 -1.109375 C 20.3125 -0.722656 20.222656 -0.441406 20.046875 -0.265625 C 19.867188 -0.0859375 19.582031 0 19.1875 0 Z M 19.1875 0 "/></g></g></g><g fill="#7843e6" fill-opacity="1"><g transform="translate(189.247697, 88.049982)"><g><path d="M 17.640625 0 L 3.25 0 C 2.863281 0 2.582031 -0.0859375 2.40625 -0.265625 C 2.226562 -0.441406 2.140625 -0.722656 2.140625 -1.109375 L 2.140625 -21.203125 C 2.140625 -21.597656 2.226562 -21.878906 2.40625 -22.046875 C 2.582031 -22.222656 2.863281 -22.3125 3.25 -22.3125 L 17.640625 -22.3125 C 18.035156 -22.3125 18.316406 -22.222656 18.484375 -22.046875 C 18.660156 -21.878906 18.75 -21.597656 18.75 -21.203125 L 18.75 -17.578125 C 18.75 -17.179688 18.660156 -16.894531 18.484375 -16.71875 C 18.316406 -16.550781 18.035156 -16.46875 17.640625 -16.46875 L 9.078125 -16.46875 L 9.078125 -14.078125 L 15.125 -14.078125 C 15.519531 -14.078125 15.804688 -13.988281 15.984375 -13.8125 C 16.160156 -13.632812 16.25 -13.347656 16.25 -12.953125 L 16.25 -9.640625 C 16.25 -9.242188 16.160156 -8.957031 15.984375 -8.78125 C 15.804688 -8.613281 15.519531 -8.53125 15.125 -8.53125 L 9.078125 -8.53125 L 9.078125 -5.859375 L 17.640625 -5.859375 C 18.035156 -5.859375 18.316406 -5.769531 18.484375 -5.59375 C 18.660156 -5.414062 18.75 -5.132812 18.75 -4.75 L 18.75 -1.109375 C 18.75 -0.722656 18.660156 -0.441406 18.484375 -0.265625 C 18.316406 -0.0859375 18.035156 0 17.640625 0 Z M 17.640625 0 "/></g></g></g><g fill="#7843e6" fill-opacity="1"><g transform="translate(209.519177, 88.049982)"><g><path d="M 7.875 0 L 3.25 0 C 2.863281 0 2.582031 -0.0859375 2.40625 -0.265625 C 2.226562 -0.441406 2.140625 -0.722656 2.140625 -1.109375 L 2.140625 -21.203125 C 2.140625 -21.597656 2.226562 -21.878906 2.40625 -22.046875 C 2.582031 -22.222656 2.863281 -22.3125 3.25 -22.3125 L 8.25 -22.3125 C 8.570312 -22.3125 8.84375 -22.238281 9.0625 -22.09375 C 9.28125 -21.957031 9.484375 -21.722656 9.671875 -21.390625 L 12.46875 -16.34375 C 12.5625 -16.15625 12.644531 -16.019531 12.71875 -15.9375 C 12.789062 -15.851562 12.890625 -15.8125 13.015625 -15.8125 L 13.296875 -15.8125 C 13.421875 -15.8125 13.519531 -15.851562 13.59375 -15.9375 C 13.664062 -16.019531 13.753906 -16.15625 13.859375 -16.34375 L 16.609375 -21.390625 C 16.796875 -21.722656 17 -21.957031 17.21875 -22.09375 C 17.4375 -22.238281 17.710938 -22.3125 18.046875 -22.3125 L 23.0625 -22.3125 C 23.457031 -22.3125 23.742188 -22.222656 23.921875 -22.046875 C 24.097656 -21.878906 24.1875 -21.597656 24.1875 -21.203125 L 24.1875 -1.109375 C 24.1875 -0.722656 24.097656 -0.441406 23.921875 -0.265625 C 23.742188 -0.0859375 23.457031 0 23.0625 0 L 18.296875 0 C 17.898438 0 17.613281 -0.0859375 17.4375 -0.265625 C 17.257812 -0.441406 17.171875 -0.722656 17.171875 -1.109375 L 17.171875 -12.03125 L 15.34375 -8.65625 C 15.15625 -8.300781 14.929688 -8.046875 14.671875 -7.890625 C 14.421875 -7.734375 14.097656 -7.65625 13.703125 -7.65625 L 12.46875 -7.65625 C 12.070312 -7.65625 11.742188 -7.734375 11.484375 -7.890625 C 11.222656 -8.046875 11 -8.300781 10.8125 -8.65625 L 8.984375 -12.03125 L 8.984375 -1.109375 C 8.984375 -0.722656 8.894531 -0.441406 8.71875 -0.265625 C 8.550781 -0.0859375 8.269531 0 7.875 0 Z M 7.875 0 "/></g></g></g><g fill="#7843e6" fill-opacity="1"><g transform="translate(235.834899, 88.049982)"><g><path d="M 21.046875 -5.859375 C 21.046875 -4.910156 20.90625 -4.046875 20.625 -3.265625 C 20.351562 -2.492188 19.859375 -1.832031 19.140625 -1.28125 C 18.429688 -0.738281 17.453125 -0.3125 16.203125 0 C 14.953125 0.3125 13.363281 0.46875 11.4375 0.46875 C 9.519531 0.46875 7.929688 0.3125 6.671875 0 C 5.410156 -0.3125 4.421875 -0.738281 3.703125 -1.28125 C 2.992188 -1.832031 2.5 -2.492188 2.21875 -3.265625 C 1.9375 -4.046875 1.796875 -4.910156 1.796875 -5.859375 L 1.796875 -16.4375 C 1.796875 -17.382812 1.9375 -18.242188 2.21875 -19.015625 C 2.5 -19.796875 2.992188 -20.460938 3.703125 -21.015625 C 4.421875 -21.578125 5.410156 -22.007812 6.671875 -22.3125 C 7.929688 -22.625 9.519531 -22.78125 11.4375 -22.78125 C 13.363281 -22.78125 14.953125 -22.625 16.203125 -22.3125 C 17.453125 -22.007812 18.429688 -21.578125 19.140625 -21.015625 C 19.859375 -20.460938 20.351562 -19.796875 20.625 -19.015625 C 20.90625 -18.242188 21.046875 -17.382812 21.046875 -16.4375 Z M 8.828125 -6.96875 C 8.828125 -6.5625 8.984375 -6.21875 9.296875 -5.9375 C 9.609375 -5.65625 10.320312 -5.515625 11.4375 -5.515625 C 12.550781 -5.515625 13.265625 -5.65625 13.578125 -5.9375 C 13.890625 -6.21875 14.046875 -6.5625 14.046875 -6.96875 L 14.046875 -15.3125 C 14.046875 -15.707031 13.890625 -16.039062 13.578125 -16.3125 C 13.265625 -16.59375 12.550781 -16.734375 11.4375 -16.734375 C 10.320312 -16.734375 9.609375 -16.59375 9.296875 -16.3125 C 8.984375 -16.039062 8.828125 -15.707031 8.828125 -15.3125 Z M 8.828125 -6.96875 "/></g></g></g><g fill="#7843e6" fill-opacity="1"><g transform="translate(258.679056, 88.049982)"><g><path d="M 7.90625 0 L 3.25 0 C 2.863281 0 2.582031 -0.0859375 2.40625 -0.265625 C 2.226562 -0.441406 2.140625 -0.722656 2.140625 -1.109375 L 2.140625 -21.203125 C 2.140625 -21.597656 2.226562 -21.878906 2.40625 -22.046875 C 2.582031 -22.222656 2.863281 -22.3125 3.25 -22.3125 L 6.484375 -22.3125 C 6.867188 -22.3125 7.203125 -22.25 7.484375 -22.125 C 7.765625 -22.007812 8.039062 -21.796875 8.3125 -21.484375 L 14.328125 -14.59375 L 14.328125 -21.203125 C 14.328125 -21.597656 14.410156 -21.878906 14.578125 -22.046875 C 14.753906 -22.222656 15.039062 -22.3125 15.4375 -22.3125 L 20.09375 -22.3125 C 20.476562 -22.3125 20.757812 -22.222656 20.9375 -22.046875 C 21.113281 -21.878906 21.203125 -21.597656 21.203125 -21.203125 L 21.203125 -1.109375 C 21.203125 -0.722656 21.113281 -0.441406 20.9375 -0.265625 C 20.757812 -0.0859375 20.476562 0 20.09375 0 L 15.4375 0 C 15.039062 0 14.753906 -0.0859375 14.578125 -0.265625 C 14.410156 -0.441406 14.328125 -0.722656 14.328125 -1.109375 L 14.328125 -4.921875 L 9.015625 -11.34375 L 9.015625 -1.109375 C 9.015625 -0.722656 8.925781 -0.441406 8.75 -0.265625 C 8.582031 -0.0859375 8.300781 0 7.90625 0 Z M 7.90625 0 "/></g></g></g><g fill="#7843e6" fill-opacity="1"><g transform="translate(282.019153, 88.049982)"><g><path d="M 7.90625 0 L 3.25 0 C 2.863281 0 2.582031 -0.0859375 2.40625 -0.265625 C 2.226562 -0.441406 2.140625 -0.722656 2.140625 -1.109375 L 2.140625 -21.203125 C 2.140625 -21.597656 2.226562 -21.878906 2.40625 -22.046875 C 2.582031 -22.222656 2.863281 -22.3125 3.25 -22.3125 L 6.484375 -22.3125 C 6.867188 -22.3125 7.203125 -22.25 7.484375 -22.125 C 7.765625 -22.007812 8.039062 -21.796875 8.3125 -21.484375 L 14.328125 -14.59375 L 14.328125 -21.203125 C 14.328125 -21.597656 14.410156 -21.878906 14.578125 -22.046875 C 14.753906 -22.222656 15.039062 -22.3125 15.4375 -22.3125 L 20.09375 -22.3125 C 20.476562 -22.3125 20.757812 -22.222656 20.9375 -22.046875 C 21.113281 -21.878906 21.203125 -21.597656 21.203125 -21.203125 L 21.203125 -1.109375 C 21.203125 -0.722656 21.113281 -0.441406 20.9375 -0.265625 C 20.757812 -0.0859375 20.476562 0 20.09375 0 L 15.4375 0 C 15.039062 0 14.753906 -0.0859375 14.578125 -0.265625 C 14.410156 -0.441406 14.328125 -0.722656 14.328125 -1.109375 L 14.328125 -4.921875 L 9.015625 -11.34375 L 9.015625 -1.109375 C 9.015625 -0.722656 8.925781 -0.441406 8.75 -0.265625 C 8.582031 -0.0859375 8.300781 0 7.90625 0 Z M 7.90625 0 "/></g></g></g><g fill="#7843e6" fill-opacity="1"><g transform="translate(305.359251, 88.049982)"><g><path d="M 10.234375 -15.8125 L 8.765625 -11.09375 L 13.640625 -11.09375 L 12.1875 -15.8125 C 12.101562 -16 12.015625 -16.132812 11.921875 -16.21875 C 11.828125 -16.300781 11.71875 -16.34375 11.59375 -16.34375 L 10.8125 -16.34375 C 10.695312 -16.34375 10.59375 -16.300781 10.5 -16.21875 C 10.40625 -16.132812 10.316406 -16 10.234375 -15.8125 Z M 8.46875 -1.109375 C 8.46875 -0.722656 8.378906 -0.441406 8.203125 -0.265625 C 8.023438 -0.0859375 7.738281 0 7.34375 0 L 2.796875 0 C 2.398438 0 2.113281 -0.0859375 1.9375 -0.265625 C 1.757812 -0.441406 1.671875 -0.722656 1.671875 -1.109375 L 1.671875 -9.296875 C 1.671875 -9.921875 1.769531 -10.632812 1.96875 -11.4375 C 2.164062 -12.238281 2.472656 -13.179688 2.890625 -14.265625 L 5.578125 -21.296875 C 5.703125 -21.648438 5.894531 -21.90625 6.15625 -22.0625 C 6.414062 -22.226562 6.75 -22.3125 7.15625 -22.3125 L 15.5 -22.3125 C 15.894531 -22.3125 16.21875 -22.226562 16.46875 -22.0625 C 16.726562 -21.90625 16.921875 -21.648438 17.046875 -21.296875 L 19.75 -14.265625 C 20.15625 -13.179688 20.457031 -12.238281 20.65625 -11.4375 C 20.851562 -10.632812 20.953125 -9.921875 20.953125 -9.296875 L 20.953125 -1.109375 C 20.953125 -0.722656 20.863281 -0.441406 20.6875 -0.265625 C 20.507812 -0.0859375 20.226562 0 19.84375 0 L 15.15625 0 C 14.738281 0 14.429688 -0.0859375 14.234375 -0.265625 C 14.046875 -0.441406 13.953125 -0.722656 13.953125 -1.109375 L 13.953125 -5.453125 L 8.46875 -5.453125 Z M 8.46875 -1.109375 "/></g></g></g><g fill="#7843e6" fill-opacity="1"><g transform="translate(327.986439, 88.049982)"><g><path d="M 2.765625 0 C 2.367188 0 2.082031 -0.0859375 1.90625 -0.265625 C 1.726562 -0.441406 1.640625 -0.722656 1.640625 -1.109375 L 1.640625 -4.8125 C 1.640625 -5.195312 1.726562 -5.476562 1.90625 -5.65625 C 2.082031 -5.832031 2.367188 -5.921875 2.765625 -5.921875 L 5.828125 -5.921875 L 5.828125 -16.34375 L 2.765625 -16.34375 C 2.367188 -16.34375 2.082031 -16.425781 1.90625 -16.59375 C 1.726562 -16.769531 1.640625 -17.054688 1.640625 -17.453125 L 1.640625 -21.203125 C 1.640625 -21.597656 1.726562 -21.878906 1.90625 -22.046875 C 2.082031 -22.222656 2.367188 -22.3125 2.765625 -22.3125 L 15.96875 -22.3125 C 16.351562 -22.3125 16.632812 -22.222656 16.8125 -22.046875 C 16.988281 -21.878906 17.078125 -21.597656 17.078125 -21.203125 L 17.078125 -17.453125 C 17.078125 -17.054688 16.988281 -16.769531 16.8125 -16.59375 C 16.632812 -16.425781 16.351562 -16.34375 15.96875 -16.34375 L 12.953125 -16.34375 L 12.953125 -5.921875 L 15.96875 -5.921875 C 16.351562 -5.921875 16.632812 -5.832031 16.8125 -5.65625 C 16.988281 -5.476562 17.078125 -5.195312 17.078125 -4.8125 L 17.078125 -1.109375 C 17.078125 -0.722656 16.988281 -0.441406 16.8125 -0.265625 C 16.632812 -0.0859375 16.351562 0 15.96875 0 Z M 2.765625 0 "/></g></g></g><g fill="#7843e6" fill-opacity="1"><g transform="translate(346.739093, 88.049982)"><g><path d="M 17.640625 0 L 3.25 0 C 2.863281 0 2.582031 -0.0859375 2.40625 -0.265625 C 2.226562 -0.441406 2.140625 -0.722656 2.140625 -1.109375 L 2.140625 -21.203125 C 2.140625 -21.597656 2.226562 -21.878906 2.40625 -22.046875 C 2.582031 -22.222656 2.863281 -22.3125 3.25 -22.3125 L 17.640625 -22.3125 C 18.035156 -22.3125 18.316406 -22.222656 18.484375 -22.046875 C 18.660156 -21.878906 18.75 -21.597656 18.75 -21.203125 L 18.75 -17.578125 C 18.75 -17.179688 18.660156 -16.894531 18.484375 -16.71875 C 18.316406 -16.550781 18.035156 -16.46875 17.640625 -16.46875 L 9.078125 -16.46875 L 9.078125 -14.078125 L 15.125 -14.078125 C 15.519531 -14.078125 15.804688 -13.988281 15.984375 -13.8125 C 16.160156 -13.632812 16.25 -13.347656 16.25 -12.953125 L 16.25 -9.640625 C 16.25 -9.242188 16.160156 -8.957031 15.984375 -8.78125 C 15.804688 -8.613281 15.519531 -8.53125 15.125 -8.53125 L 9.078125 -8.53125 L 9.078125 -5.859375 L 17.640625 -5.859375 C 18.035156 -5.859375 18.316406 -5.769531 18.484375 -5.59375 C 18.660156 -5.414062 18.75 -5.132812 18.75 -4.75 L 18.75 -1.109375 C 18.75 -0.722656 18.660156 -0.441406 18.484375 -0.265625 C 18.316406 -0.0859375 18.035156 0 17.640625 0 Z M 17.640625 0 "/></g></g></g><g clip-path="url(#41c933f869)"><path fill="#3168d8" d="M 52.699219 107.40625 L 53.605469 107.40625 C 53.675781 107.417969 53.746094 107.417969 53.816406 107.40625 C 54.820312 107.40625 55.820312 107.355469 56.816406 107.257812 C 57.816406 107.15625 58.804688 107.011719 59.789062 106.8125 C 60.773438 106.617188 61.742188 106.371094 62.703125 106.082031 C 63.660156 105.789062 64.601562 105.449219 65.527344 105.066406 C 66.453125 104.679688 67.359375 104.253906 68.242188 103.777344 C 69.128906 103.304688 69.984375 102.789062 70.816406 102.230469 C 71.652344 101.671875 72.453125 101.078125 73.230469 100.441406 C 74.003906 99.804688 74.746094 99.128906 75.453125 98.421875 C 76.160156 97.710938 76.832031 96.96875 77.46875 96.191406 C 78.101562 95.417969 78.699219 94.613281 79.253906 93.777344 C 79.8125 92.945312 80.324219 92.085938 80.796875 91.199219 C 81.269531 90.316406 81.695312 89.410156 82.078125 88.484375 C 82.460938 87.554688 82.796875 86.613281 83.085938 85.652344 C 83.375 84.695312 83.617188 83.722656 83.8125 82.738281 C 84.007812 81.753906 84.152344 80.765625 84.25 79.765625 C 84.347656 78.769531 84.398438 77.769531 84.394531 76.765625 C 84.394531 75.765625 84.34375 74.765625 84.246094 73.765625 C 84.144531 72.769531 83.996094 71.777344 83.800781 70.796875 C 83.605469 69.8125 83.359375 68.839844 83.070312 67.882812 C 82.777344 66.921875 82.4375 65.980469 82.054688 65.054688 C 81.667969 64.128906 81.238281 63.226562 80.765625 62.339844 C 80.292969 61.457031 79.777344 60.597656 79.21875 59.765625 C 78.660156 58.933594 78.0625 58.128906 77.425781 57.355469 C 76.789062 56.582031 76.117188 55.839844 75.40625 55.132812 C 74.699219 54.425781 73.957031 53.753906 73.179688 53.117188 C 72.40625 52.480469 71.601562 51.886719 70.765625 51.332031 C 69.929688 50.773438 69.070312 50.261719 68.1875 49.789062 C 67.304688 49.316406 66.398438 48.890625 65.472656 48.507812 C 64.542969 48.125 63.601562 47.789062 62.640625 47.496094 C 61.683594 47.207031 60.710938 46.964844 59.726562 46.769531 C 58.742188 46.578125 57.753906 46.429688 56.753906 46.332031 C 55.757812 46.234375 54.757812 46.1875 53.753906 46.1875 L 52.699219 46.1875 C 51.695312 46.1875 50.695312 46.238281 49.699219 46.335938 C 48.703125 46.4375 47.710938 46.582031 46.730469 46.777344 C 45.746094 46.976562 44.773438 47.21875 43.816406 47.507812 C 42.855469 47.800781 41.914062 48.136719 40.988281 48.523438 C 40.0625 48.90625 39.15625 49.335938 38.273438 49.808594 C 37.390625 50.28125 36.53125 50.792969 35.699219 51.351562 C 34.867188 51.910156 34.0625 52.503906 33.285156 53.140625 C 32.511719 53.777344 31.769531 54.449219 31.0625 55.15625 C 30.351562 55.867188 29.679688 56.609375 29.046875 57.382812 C 28.410156 58.160156 27.8125 58.960938 27.257812 59.796875 C 26.699219 60.628906 26.183594 61.488281 25.714844 62.371094 C 25.242188 63.257812 24.8125 64.160156 24.429688 65.085938 C 24.046875 66.011719 23.707031 66.957031 23.417969 67.914062 C 23.125 68.875 22.882812 69.84375 22.6875 70.828125 C 22.492188 71.8125 22.347656 72.800781 22.246094 73.800781 C 22.148438 74.796875 22.101562 75.796875 22.101562 76.796875 C 22.101562 77.800781 22.148438 78.800781 22.246094 79.796875 C 22.347656 80.796875 22.492188 81.785156 22.6875 82.769531 C 22.882812 83.75 23.125 84.722656 23.417969 85.683594 C 23.707031 86.640625 24.046875 87.582031 24.429688 88.507812 C 24.8125 89.4375 25.242188 90.339844 25.714844 91.226562 C 26.183594 92.109375 26.699219 92.96875 27.257812 93.800781 C 27.8125 94.632812 28.410156 95.4375 29.046875 96.214844 C 29.679688 96.988281 30.351562 97.730469 31.0625 98.4375 C 31.769531 99.148438 32.511719 99.820312 33.285156 100.457031 C 34.0625 101.09375 34.867188 101.6875 35.699219 102.246094 C 36.53125 102.800781 37.390625 103.316406 38.273438 103.789062 C 39.15625 104.261719 40.0625 104.691406 40.988281 105.074219 C 41.914062 105.457031 42.855469 105.796875 43.816406 106.085938 C 44.773438 106.378906 45.746094 106.621094 46.730469 106.816406 C 47.710938 107.015625 48.703125 107.160156 49.699219 107.257812 C 50.695312 107.359375 51.695312 107.40625 52.699219 107.40625 Z M 34.753906 76.503906 C 34.78125 74.410156 35.019531 72.339844 35.464844 70.296875 C 38.375 70.972656 41.316406 71.460938 44.285156 71.765625 C 44.171875 73.230469 44.097656 74.742188 44.074219 76.28125 C 44.074219 78.285156 44.148438 80.207031 44.308594 82.085938 C 41.34375 82.40625 38.414062 82.914062 35.515625 83.617188 C 34.996094 81.273438 34.742188 78.902344 34.753906 76.503906 Z M 71.496094 76.503906 C 71.523438 79 71.253906 81.460938 70.683594 83.890625 C 67.800781 83.160156 64.886719 82.617188 61.933594 82.253906 C 62.105469 80.34375 62.199219 78.371094 62.175781 76.324219 C 62.175781 74.742188 62.09375 73.15625 61.964844 71.691406 C 64.929688 71.34375 67.859375 70.816406 70.757812 70.105469 C 71.234375 72.210938 71.488281 74.34375 71.519531 76.503906 Z M 46.164062 76.300781 C 46.164062 74.8125 46.25 73.359375 46.355469 71.953125 C 48.339844 72.101562 50.398438 72.195312 52.550781 72.195312 L 53.132812 72.195312 C 55.515625 72.195312 57.800781 72.082031 59.980469 71.859375 C 60.097656 73.292969 60.171875 74.773438 60.183594 76.300781 C 60.183594 78.265625 60.109375 80.15625 59.949219 81.992188 C 57.777344 81.789062 55.496094 81.664062 53.121094 81.644531 C 50.746094 81.621094 48.53125 81.71875 46.386719 81.898438 C 46.207031 80.089844 46.125 78.222656 46.144531 76.300781 Z M 53.140625 60.121094 L 53.363281 60.121094 C 54.925781 60.121094 56.382812 60.046875 57.753906 59.953125 C 58.699219 63.1875 59.363281 66.484375 59.75 69.832031 C 57.640625 70.023438 55.410156 70.136719 53.089844 70.148438 C 50.769531 70.160156 48.625 70.085938 46.535156 69.925781 C 46.929688 66.53125 47.601562 63.195312 48.550781 59.910156 C 50.082031 60.046875 51.644531 60.121094 53.140625 60.121094 Z M 49.171875 57.914062 C 50.234375 54.675781 51.5625 51.546875 53.152344 48.53125 C 54.742188 51.558594 56.074219 54.699219 57.144531 57.949219 C 55.949219 58.03125 54.695312 58.074219 53.355469 58.085938 L 53.140625 58.085938 C 51.824219 58.085938 50.492188 58.019531 49.171875 57.914062 Z M 53.078125 83.691406 C 55.402344 83.691406 57.617188 83.828125 59.71875 84.027344 C 59.3125 87.367188 58.636719 90.648438 57.691406 93.875 C 56.328125 93.78125 54.894531 93.71875 53.363281 93.71875 C 51.832031 93.71875 50.199219 93.78125 48.625 93.90625 C 47.65625 90.636719 46.972656 87.308594 46.566406 83.921875 C 48.644531 83.753906 50.820312 83.667969 53.078125 83.691406 Z M 53.355469 95.796875 C 54.664062 95.796875 55.886719 95.796875 57.058594 95.925781 C 56.007812 99.089844 54.703125 102.152344 53.152344 105.105469 C 51.601562 102.160156 50.300781 99.105469 49.246094 95.945312 C 50.589844 95.796875 51.992188 95.796875 53.355469 95.796875 Z M 50.304688 104 C 47.152344 102.121094 44.402344 99.769531 42.058594 96.949219 C 43.738281 96.597656 45.449219 96.324219 47.15625 96.136719 C 48.035156 98.8125 49.082031 101.417969 50.304688 103.957031 Z M 48.074219 105.054688 C 45.628906 104.636719 43.277344 103.910156 41.019531 102.878906 C 38.761719 101.84375 36.671875 100.539062 34.753906 98.964844 C 36.441406 98.351562 38.15625 97.828125 39.894531 97.390625 C 42.195312 100.382812 44.921875 102.914062 48.074219 104.992188 Z M 55.992188 104 C 57.226562 101.433594 58.28125 98.800781 59.160156 96.09375 C 60.890625 96.257812 62.605469 96.511719 64.308594 96.851562 C 61.953125 99.707031 59.179688 102.078125 55.992188 103.957031 Z M 66.546875 97.359375 C 68.0625 97.75 69.550781 98.222656 71.011719 98.773438 C 67.375 101.820312 63.234375 103.828125 58.589844 104.800781 C 61.640625 102.742188 64.285156 100.246094 66.515625 97.316406 Z M 59.792969 94.097656 C 60.722656 90.878906 61.382812 87.609375 61.777344 84.28125 C 64.625 84.632812 67.4375 85.160156 70.21875 85.863281 C 69.222656 89.175781 67.722656 92.242188 65.714844 95.058594 C 63.75 94.609375 61.765625 94.273438 59.761719 94.054688 Z M 61.785156 69.621094 C 61.394531 66.285156 60.738281 63.003906 59.824219 59.773438 C 61.839844 59.570312 63.832031 59.242188 65.808594 58.792969 C 67.804688 61.648438 69.292969 64.746094 70.273438 68.089844 C 67.476562 68.777344 64.648438 69.285156 61.785156 69.621094 Z M 59.222656 57.800781 C 58.335938 55.011719 57.257812 52.296875 55.992188 49.660156 C 59.25 51.617188 62.066406 54.082031 64.4375 57.050781 C 62.710938 57.390625 60.972656 57.640625 59.222656 57.800781 Z M 58.546875 48.859375 C 63.296875 49.84375 67.519531 51.910156 71.210938 55.054688 C 69.730469 55.617188 68.226562 56.097656 66.695312 56.5 C 64.410156 53.488281 61.691406 50.933594 58.546875 48.839844 Z M 50.304688 49.671875 C 49.058594 52.289062 48.003906 54.980469 47.136719 57.746094 C 45.394531 57.558594 43.664062 57.273438 41.964844 56.914062 C 44.3125 54 47.09375 51.578125 50.304688 49.652344 Z M 39.75 56.40625 C 37.988281 55.960938 36.253906 55.425781 34.542969 54.800781 C 36.484375 53.1875 38.605469 51.855469 40.898438 50.804688 C 43.195312 49.753906 45.585938 49.019531 48.074219 48.605469 C 44.84375 50.722656 42.058594 53.3125 39.714844 56.386719 Z M 46.523438 59.730469 C 45.589844 63.023438 44.925781 66.367188 44.539062 69.769531 C 41.652344 69.476562 38.796875 69.007812 35.96875 68.355469 C 36.953125 64.886719 38.484375 61.675781 40.5625 58.726562 C 42.519531 59.160156 44.496094 59.488281 46.492188 59.710938 Z M 44.539062 84.113281 C 44.933594 87.503906 45.605469 90.839844 46.554688 94.121094 C 44.578125 94.351562 42.621094 94.679688 40.675781 95.109375 C 38.597656 92.207031 37.054688 89.039062 36.042969 85.613281 C 38.84375 84.925781 41.675781 84.425781 44.539062 84.113281 Z M 38.578125 95.640625 C 36.679688 96.140625 34.816406 96.742188 32.984375 97.445312 C 30.394531 94.972656 28.339844 92.121094 26.820312 88.882812 C 29.140625 87.710938 31.558594 86.789062 34.070312 86.109375 C 35.0625 89.527344 36.566406 92.703125 38.578125 95.640625 Z M 72.667969 97.203125 C 71.078125 96.550781 69.453125 96 67.792969 95.542969 C 69.714844 92.707031 71.167969 89.652344 72.152344 86.371094 C 74.367188 87.015625 76.507812 87.855469 78.570312 88.894531 C 77.105469 92.019531 75.140625 94.789062 72.667969 97.203125 Z M 79.371094 87.015625 C 77.21875 85.9375 74.984375 85.070312 72.667969 84.410156 C 73.855469 79.457031 73.882812 74.5 72.753906 69.535156 C 75.089844 68.898438 77.355469 68.0625 79.550781 67.035156 C 80.132812 68.636719 80.570312 70.28125 80.859375 71.960938 C 81.148438 73.640625 81.285156 75.335938 81.269531 77.042969 C 81.253906 78.746094 81.085938 80.4375 80.769531 82.113281 C 80.449219 83.789062 79.984375 85.421875 79.371094 87.015625 Z M 78.769531 65.1875 C 76.664062 66.1875 74.484375 67 72.238281 67.625 C 71.273438 64.300781 69.835938 61.191406 67.917969 58.304688 C 69.59375 57.839844 71.238281 57.273438 72.847656 56.617188 C 75.347656 59.109375 77.320312 61.96875 78.769531 65.1875 Z M 32.804688 56.320312 C 34.640625 57.027344 36.507812 57.636719 38.40625 58.148438 C 36.414062 61.132812 34.933594 64.351562 33.964844 67.804688 C 31.417969 67.148438 28.953125 66.257812 26.574219 65.136719 C 28.09375 61.800781 30.167969 58.863281 32.804688 56.320312 Z M 25.847656 67.046875 C 28.3125 68.199219 30.863281 69.117188 33.5 69.800781 C 33.015625 72 32.761719 74.230469 32.738281 76.480469 C 32.714844 79.082031 32.988281 81.652344 33.5625 84.1875 C 30.953125 84.894531 28.4375 85.847656 26.015625 87.046875 C 25.40625 85.457031 24.945312 83.824219 24.625 82.152344 C 24.308594 80.480469 24.144531 78.792969 24.128906 77.089844 C 24.113281 75.386719 24.25 73.695312 24.539062 72.015625 C 24.828125 70.339844 25.265625 68.699219 25.847656 67.097656 Z M 25.847656 67.046875 " fill-opacity="1" fill-rule="nonzero"/></g><g clip-path="url(#9b64ff7d35)"><path fill="#7900ff" d="M 53.332031 106.800781 L 54.21875 106.800781 C 54.289062 106.808594 54.359375 106.808594 54.425781 106.800781 C 55.410156 106.800781 56.390625 106.75 57.367188 106.652344 C 58.34375 106.554688 59.316406 106.410156 60.28125 106.21875 C 61.242188 106.023438 62.195312 105.785156 63.132812 105.5 C 64.074219 105.214844 64.996094 104.882812 65.90625 104.503906 C 66.8125 104.128906 67.699219 103.707031 68.566406 103.242188 C 69.429688 102.777344 70.273438 102.273438 71.089844 101.726562 C 71.90625 101.179688 72.691406 100.59375 73.453125 99.96875 C 74.210938 99.347656 74.9375 98.6875 75.632812 97.992188 C 76.324219 97.296875 76.984375 96.566406 77.605469 95.808594 C 78.230469 95.046875 78.8125 94.257812 79.359375 93.441406 C 79.902344 92.625 80.40625 91.78125 80.867188 90.914062 C 81.332031 90.046875 81.75 89.160156 82.125 88.25 C 82.5 87.34375 82.828125 86.417969 83.113281 85.480469 C 83.398438 84.539062 83.636719 83.585938 83.824219 82.621094 C 84.015625 81.660156 84.160156 80.6875 84.253906 79.710938 C 84.351562 78.730469 84.398438 77.75 84.394531 76.769531 C 84.394531 75.785156 84.347656 74.804688 84.25 73.828125 C 84.152344 72.851562 84.007812 71.878906 83.8125 70.917969 C 83.621094 69.953125 83.382812 69 83.09375 68.0625 C 82.808594 67.121094 82.476562 66.199219 82.101562 65.289062 C 81.722656 64.382812 81.304688 63.496094 80.839844 62.628906 C 80.375 61.765625 79.871094 60.921875 79.324219 60.105469 C 78.777344 59.289062 78.191406 58.503906 77.566406 57.746094 C 76.941406 56.984375 76.28125 56.257812 75.585938 55.566406 C 74.890625 54.871094 74.164062 54.210938 73.402344 53.589844 C 72.644531 52.96875 71.855469 52.382812 71.039062 51.839844 C 70.21875 51.292969 69.378906 50.789062 68.511719 50.328125 C 67.644531 49.867188 66.757812 49.445312 65.847656 49.070312 C 64.941406 48.695312 64.015625 48.367188 63.074219 48.082031 C 62.132812 47.796875 61.183594 47.5625 60.21875 47.371094 C 59.253906 47.179688 58.285156 47.035156 57.304688 46.941406 C 56.328125 46.847656 55.347656 46.800781 54.363281 46.800781 L 53.332031 46.800781 C 52.347656 46.800781 51.367188 46.847656 50.390625 46.945312 C 49.414062 47.042969 48.441406 47.1875 47.480469 47.378906 C 46.515625 47.570312 45.5625 47.808594 44.625 48.09375 C 43.683594 48.378906 42.761719 48.710938 41.851562 49.085938 C 40.945312 49.460938 40.058594 49.882812 39.191406 50.34375 C 38.328125 50.808594 37.484375 51.3125 36.667969 51.859375 C 35.851562 52.40625 35.0625 52.988281 34.304688 53.613281 C 33.546875 54.238281 32.820312 54.894531 32.125 55.589844 C 31.429688 56.285156 30.769531 57.011719 30.148438 57.773438 C 29.523438 58.53125 28.941406 59.320312 28.394531 60.136719 C 27.847656 60.953125 27.34375 61.792969 26.882812 62.660156 C 26.417969 63.527344 26 64.414062 25.625 65.320312 C 25.246094 66.230469 24.917969 67.152344 24.632812 68.09375 C 24.347656 69.035156 24.109375 69.984375 23.917969 70.949219 C 23.726562 71.910156 23.582031 72.882812 23.484375 73.859375 C 23.390625 74.835938 23.339844 75.816406 23.339844 76.800781 C 23.339844 77.78125 23.390625 78.761719 23.484375 79.738281 C 23.582031 80.71875 23.726562 81.6875 23.917969 82.652344 C 24.109375 83.613281 24.347656 84.566406 24.632812 85.507812 C 24.917969 86.445312 25.246094 87.371094 25.625 88.277344 C 26 89.1875 26.417969 90.074219 26.882812 90.9375 C 27.34375 91.804688 27.847656 92.648438 28.394531 93.464844 C 28.941406 94.28125 29.523438 95.070312 30.148438 95.828125 C 30.769531 96.585938 31.429688 97.316406 32.125 98.007812 C 32.820312 98.703125 33.546875 99.363281 34.304688 99.988281 C 35.0625 100.609375 35.851562 101.195312 36.667969 101.742188 C 37.484375 102.285156 38.328125 102.789062 39.191406 103.253906 C 40.058594 103.71875 40.945312 104.136719 41.851562 104.511719 C 42.761719 104.890625 43.683594 105.21875 44.625 105.503906 C 45.5625 105.792969 46.515625 106.03125 47.480469 106.222656 C 48.441406 106.414062 49.414062 106.558594 50.390625 106.65625 C 51.367188 106.75 52.347656 106.800781 53.332031 106.800781 Z M 35.746094 76.511719 C 35.769531 74.460938 36.003906 72.433594 36.4375 70.425781 C 39.289062 71.089844 42.171875 71.566406 45.085938 71.867188 C 44.972656 73.304688 44.898438 74.78125 44.878906 76.292969 C 44.878906 78.257812 44.953125 80.140625 45.105469 81.984375 C 42.203125 82.292969 39.328125 82.792969 36.488281 83.484375 C 35.980469 81.1875 35.730469 78.863281 35.746094 76.511719 Z M 71.753906 76.511719 C 71.78125 78.957031 71.515625 81.371094 70.957031 83.75 C 68.132812 83.035156 65.273438 82.503906 62.382812 82.148438 C 62.546875 80.277344 62.640625 78.339844 62.621094 76.335938 C 62.621094 74.78125 62.539062 73.230469 62.414062 71.792969 C 65.316406 71.453125 68.191406 70.9375 71.03125 70.242188 C 71.496094 72.304688 71.746094 74.394531 71.777344 76.511719 Z M 46.925781 76.3125 C 46.925781 74.855469 47.011719 73.425781 47.113281 72.050781 C 49.058594 72.195312 51.074219 72.289062 53.1875 72.289062 L 53.753906 72.289062 C 56.09375 72.289062 58.332031 72.179688 60.46875 71.957031 C 60.582031 73.367188 60.65625 74.8125 60.664062 76.3125 C 60.664062 78.238281 60.59375 80.089844 60.4375 81.890625 C 58.304688 81.691406 56.070312 81.570312 53.746094 81.546875 C 51.417969 81.527344 49.246094 81.621094 47.144531 81.796875 C 46.96875 80.027344 46.886719 78.195312 46.90625 76.3125 Z M 53.765625 60.457031 L 53.980469 60.457031 C 55.511719 60.457031 56.941406 60.382812 58.285156 60.289062 C 59.210938 63.460938 59.863281 66.6875 60.242188 69.972656 C 58.171875 70.160156 55.988281 70.273438 53.714844 70.28125 C 51.4375 70.292969 49.335938 70.21875 47.289062 70.066406 C 47.675781 66.738281 48.335938 63.464844 49.265625 60.25 C 50.765625 60.382812 52.296875 60.457031 53.765625 60.457031 Z M 49.875 58.292969 C 50.914062 55.117188 52.214844 52.050781 53.777344 49.097656 C 55.335938 52.0625 56.636719 55.140625 57.6875 58.324219 C 56.515625 58.40625 55.285156 58.449219 53.972656 58.457031 L 53.765625 58.457031 C 52.472656 58.457031 51.167969 58.398438 49.875 58.292969 Z M 53.703125 83.554688 C 55.980469 83.554688 58.152344 83.691406 60.210938 83.886719 C 59.8125 87.15625 59.152344 90.375 58.222656 93.539062 C 56.890625 93.445312 55.480469 93.382812 53.980469 93.382812 C 52.480469 93.382812 50.878906 93.445312 49.335938 93.570312 C 48.390625 90.363281 47.714844 87.101562 47.320312 83.78125 C 49.359375 83.617188 51.488281 83.535156 53.703125 83.554688 Z M 53.972656 95.421875 C 55.253906 95.421875 56.453125 95.421875 57.601562 95.542969 C 56.570312 98.648438 55.296875 101.648438 53.777344 104.542969 C 52.253906 101.65625 50.980469 98.664062 49.949219 95.566406 C 51.261719 95.421875 52.636719 95.421875 53.972656 95.421875 Z M 50.980469 103.457031 C 47.890625 101.617188 45.199219 99.316406 42.902344 96.546875 C 44.546875 96.207031 46.222656 95.9375 47.898438 95.75 C 48.757812 98.375 49.785156 100.929688 50.980469 103.417969 Z M 48.800781 104.492188 C 46.402344 104.082031 44.097656 103.371094 41.882812 102.359375 C 39.671875 101.347656 37.625 100.070312 35.746094 98.523438 C 37.398438 97.925781 39.078125 97.410156 40.78125 96.984375 C 43.039062 99.914062 45.710938 102.398438 48.800781 104.429688 Z M 56.558594 103.457031 C 57.769531 100.945312 58.800781 98.363281 59.660156 95.710938 C 61.355469 95.871094 63.039062 96.121094 64.710938 96.457031 C 62.402344 99.253906 59.683594 101.574219 56.558594 103.417969 Z M 66.902344 96.953125 C 68.386719 97.332031 69.84375 97.796875 71.277344 98.339844 C 67.714844 101.324219 63.65625 103.292969 59.101562 104.246094 C 62.09375 102.226562 64.683594 99.78125 66.871094 96.910156 Z M 60.28125 93.753906 C 61.191406 90.601562 61.839844 87.394531 62.226562 84.132812 C 65.019531 84.476562 67.777344 84.992188 70.503906 85.6875 C 69.527344 88.933594 68.054688 91.9375 66.085938 94.695312 C 64.160156 94.253906 62.214844 93.925781 60.25 93.714844 Z M 62.238281 69.765625 C 61.851562 66.496094 61.210938 63.28125 60.3125 60.113281 C 62.289062 59.914062 64.242188 59.59375 66.179688 59.152344 C 68.136719 61.949219 69.59375 64.988281 70.554688 68.265625 C 67.8125 68.9375 65.039062 69.4375 62.238281 69.765625 Z M 59.722656 58.179688 C 58.855469 55.445312 57.800781 52.789062 56.558594 50.203125 C 59.75 52.121094 62.511719 54.535156 64.835938 57.445312 C 63.144531 57.777344 61.441406 58.023438 59.722656 58.179688 Z M 59.0625 49.417969 C 63.71875 50.382812 67.855469 52.40625 71.476562 55.488281 C 70.023438 56.039062 68.546875 56.511719 67.046875 56.90625 C 64.808594 53.957031 62.144531 51.453125 59.0625 49.398438 Z M 50.980469 50.214844 C 49.765625 52.78125 48.730469 55.417969 47.878906 58.128906 C 46.171875 57.941406 44.476562 57.660156 42.808594 57.308594 C 45.113281 54.453125 47.835938 52.082031 50.980469 50.191406 Z M 40.636719 56.8125 C 38.910156 56.375 37.210938 55.851562 35.539062 55.242188 C 37.441406 53.660156 39.515625 52.355469 41.765625 51.324219 C 44.015625 50.292969 46.359375 49.574219 48.800781 49.167969 C 45.632812 51.242188 42.902344 53.785156 40.605469 56.792969 Z M 47.277344 60.074219 C 46.363281 63.296875 45.714844 66.578125 45.335938 69.910156 C 42.503906 69.625 39.703125 69.164062 36.933594 68.523438 C 37.898438 65.125 39.398438 61.980469 41.433594 59.089844 C 43.355469 59.515625 45.292969 59.835938 47.246094 60.050781 Z M 45.335938 83.96875 C 45.71875 87.292969 46.378906 90.5625 47.308594 93.777344 C 45.371094 94 43.453125 94.324219 41.546875 94.75 C 39.511719 91.898438 37.996094 88.796875 37.007812 85.4375 C 39.75 84.765625 42.527344 84.273438 45.335938 83.96875 Z M 39.488281 95.265625 C 37.628906 95.757812 35.800781 96.347656 34.007812 97.035156 C 31.46875 94.613281 29.457031 91.816406 27.964844 88.644531 C 30.242188 87.496094 32.609375 86.589844 35.070312 85.925781 C 36.046875 89.273438 37.519531 92.386719 39.488281 95.265625 Z M 72.902344 96.796875 C 71.34375 96.160156 69.75 95.617188 68.125 95.171875 C 70.007812 92.394531 71.429688 89.398438 72.394531 86.183594 C 74.570312 86.8125 76.664062 87.636719 78.6875 88.65625 C 77.25 91.71875 75.324219 94.433594 72.902344 96.796875 Z M 79.472656 86.8125 C 77.363281 85.757812 75.171875 84.90625 72.902344 84.257812 C 74.066406 79.40625 74.09375 74.546875 72.984375 69.683594 C 75.277344 69.054688 77.496094 68.238281 79.648438 67.230469 C 80.21875 68.800781 80.648438 70.410156 80.929688 72.058594 C 81.214844 73.707031 81.347656 75.367188 81.332031 77.039062 C 81.316406 78.710938 81.152344 80.367188 80.839844 82.007812 C 80.527344 83.652344 80.070312 85.253906 79.472656 86.8125 Z M 78.882812 65.421875 C 76.816406 66.402344 74.683594 67.199219 72.480469 67.808594 C 71.535156 64.550781 70.125 61.503906 68.246094 58.675781 C 69.890625 58.21875 71.5 57.664062 73.078125 57.019531 C 75.527344 59.464844 77.464844 62.265625 78.882812 65.421875 Z M 33.832031 56.730469 C 35.628906 57.425781 37.460938 58.019531 39.324219 58.519531 C 37.371094 61.445312 35.917969 64.601562 34.96875 67.984375 C 32.472656 67.34375 30.058594 66.46875 27.726562 65.367188 C 29.214844 62.101562 31.25 59.222656 33.832031 56.730469 Z M 27.011719 67.242188 C 29.429688 68.371094 31.929688 69.269531 34.511719 69.941406 C 34.039062 72.097656 33.792969 74.28125 33.769531 76.488281 C 33.746094 79.039062 34.015625 81.554688 34.574219 84.042969 C 32.019531 84.734375 29.550781 85.667969 27.179688 86.84375 C 25.972656 83.703125 25.359375 80.449219 25.328125 77.082031 C 25.300781 73.71875 25.863281 70.457031 27.011719 67.292969 Z M 27.011719 67.242188 " fill-opacity="1" fill-rule="nonzero"/></g></svg>
